<svg width="368" height="324" viewBox="0 0 368 324" fill="none" xmlns="http://www.w3.org/2000/svg">
<path d="M261.371 312.691H33.744V315.984H261.371V312.691Z" fill="#C0D8FB"/>
<path d="M263.714 315.984H31.4226V319.277H263.714V315.984Z" fill="#AFCDFB"/>
<path d="M266.906 319.257H28.2099V322.55H266.906V319.257Z" fill="#C0D8FB"/>
<path d="M251.92 187.002H39.0503V312.691H251.92V187.002Z" fill="#D2E3FC"/>
<path d="M266.387 189.405H26.4273L148.594 127.534L266.387 189.405Z" fill="#DCEAFF"/>
<path d="M62.8659 181.14L229.97 180.788L148.511 138.471L62.8659 181.14Z" fill="#AFCDFB"/>
<path d="M261.309 189.405H32.7077V194.707H261.309V189.405Z" fill="#C0D8FB"/>
<path d="M72.1725 189.405H49.6626V197.379H72.1725V189.405Z" fill="#DCEAFF"/>
<path d="M67.1358 197.379H54.7201V312.69H67.1358V197.379Z" fill="#DCEAFF"/>
<path d="M120.84 189.405H98.3304V197.379H120.84V189.405Z" fill="#DCEAFF"/>
<path d="M115.804 197.379H103.388V312.69H115.804V197.379Z" fill="#DCEAFF"/>
<path d="M197.324 189.405H174.814V197.379H197.324V189.405Z" fill="#DCEAFF"/>
<path d="M192.287 197.379H179.872V312.69H192.287V197.379Z" fill="#DCEAFF"/>
<path d="M243.132 189.405H220.622V197.379H243.132V189.405Z" fill="#DCEAFF"/>
<path d="M238.095 197.379H225.679V312.69H238.095V197.379Z" fill="#DCEAFF"/>
<path d="M151.227 165.315C151.227 164.942 151.185 164.611 151.081 164.321C150.978 164.031 150.812 163.762 150.563 163.534C150.315 163.306 150.024 163.078 149.631 162.871C149.257 162.664 148.781 162.457 148.242 162.27C147.288 161.918 146.439 161.566 145.672 161.193C144.905 160.82 144.241 160.385 143.703 159.909C143.164 159.433 142.728 158.853 142.438 158.211C142.148 157.568 142.003 156.802 142.003 155.932C142.024 155.166 142.169 154.461 142.438 153.84C142.728 153.219 143.122 152.68 143.62 152.204C144.138 151.748 144.739 151.375 145.444 151.085C146.148 150.795 146.936 150.63 147.807 150.567L147.848 147.688L150.169 147.73L150.128 150.65C150.957 150.774 151.703 151.002 152.387 151.354C153.071 151.707 153.631 152.142 154.108 152.68C154.584 153.219 154.937 153.861 155.185 154.586C155.434 155.311 155.559 156.119 155.538 157.03L151.33 156.968C151.351 155.891 151.123 155.083 150.646 154.524C150.169 153.985 149.527 153.695 148.739 153.695C148.304 153.695 147.931 153.737 147.599 153.861C147.288 153.985 147.019 154.151 146.812 154.358C146.604 154.565 146.459 154.814 146.356 155.104C146.252 155.394 146.211 155.704 146.19 156.036C146.19 156.367 146.231 156.678 146.314 156.947C146.397 157.216 146.563 157.465 146.812 157.713C147.04 157.941 147.351 158.169 147.744 158.376C148.138 158.583 148.615 158.811 149.195 159.018C150.128 159.391 150.978 159.764 151.745 160.137C152.512 160.51 153.175 160.945 153.714 161.442C154.253 161.939 154.688 162.498 154.978 163.14C155.268 163.782 155.413 164.549 155.413 165.419C155.393 166.206 155.248 166.91 154.978 167.552C154.688 168.174 154.294 168.712 153.776 169.168C153.258 169.624 152.657 169.976 151.931 170.245C151.206 170.514 150.418 170.68 149.548 170.742L149.506 173.435L147.185 173.393L147.226 170.721C146.418 170.639 145.651 170.452 144.905 170.162C144.159 169.872 143.495 169.479 142.915 168.961C142.335 168.443 141.879 167.801 141.547 167.014C141.215 166.227 141.049 165.295 141.07 164.217L145.278 164.28C145.278 164.922 145.34 165.46 145.527 165.875C145.692 166.309 145.941 166.641 146.231 166.91C146.521 167.179 146.874 167.366 147.247 167.469C147.62 167.573 148.014 167.635 148.408 167.635C148.864 167.635 149.257 167.594 149.61 167.469C149.962 167.366 150.252 167.2 150.48 166.993C150.708 166.786 150.895 166.537 151.019 166.268C151.164 165.957 151.227 165.647 151.227 165.315Z" fill="#DCEAFF"/>
<path d="M160.885 312.691H130.002V278.969C130.002 270.974 136.489 264.491 144.49 264.491H147.247C154.792 264.491 160.906 270.601 160.906 278.141V312.691H160.885Z" fill="#C0D8FB"/>
<path d="M135.267 239.717H120.675V223.789C120.675 220.019 123.742 216.954 127.515 216.954H128.82C132.385 216.954 135.267 219.833 135.267 223.395V239.717Z" fill="#C0D8FB"/>
<path d="M92.5475 239.717H77.9554V223.789C77.9554 220.019 81.0231 216.954 84.7954 216.954H86.1013C89.6664 216.954 92.5475 219.833 92.5475 223.395V239.717Z" fill="#C0D8FB"/>
<path d="M92.5475 288.58H77.9554V272.652C77.9554 268.882 81.0231 265.816 84.7954 265.816H86.1013C89.6664 265.816 92.5475 268.695 92.5475 272.258V288.58Z" fill="#C0D8FB"/>
<path d="M216.269 239.717H201.677V223.789C201.677 220.019 204.744 216.954 208.517 216.954H209.823C213.388 216.954 216.269 219.833 216.269 223.395V239.717Z" fill="#C0D8FB"/>
<path d="M216.269 288.58H201.677V272.652C201.677 268.882 204.744 265.816 208.517 265.816H209.823C213.388 265.816 216.269 268.695 216.269 272.258V288.58Z" fill="#C0D8FB"/>
<path d="M172.14 239.717H157.548V223.789C157.548 220.019 160.616 216.954 164.388 216.954H165.694C169.259 216.954 172.14 219.833 172.14 223.395V239.717Z" fill="#C0D8FB"/>
<path d="M285.395 125.484L235.462 179.4L163.518 112.89L133.214 84.8648L183.126 30.9273L239.732 83.2698L285.395 125.484Z" fill="#DCEAFF"/>
<path d="M273.974 126.105L235.214 167.967L143.288 82.9799L182.048 41.1183L273.974 126.105ZM238.675 161.649L267.901 130.082C269.89 127.948 269.745 124.593 267.61 122.604L186.09 47.2287C183.914 45.2195 180.494 45.3438 178.483 47.5187L149.382 78.9822C147.371 81.1364 147.516 84.5127 149.672 86.5219L231.255 161.939C233.39 163.907 236.706 163.783 238.675 161.649Z" fill="#C0D8FB"/>
<path d="M219.885 114.979C225.645 108.757 225.268 99.0465 219.042 93.2899C212.816 87.5333 203.099 87.9106 197.338 94.1325C191.578 100.354 191.955 110.065 198.181 115.822C204.407 121.578 214.125 121.201 219.885 114.979Z" fill="#C0D8FB"/>
<path d="M289.809 139.32L216.476 144.623L209.429 46.9179L206.444 5.76059L279.777 0.457977L285.332 77.3251L289.809 139.32Z" fill="#DCEAFF"/>
<path d="M281.042 131.988L224.104 136.089L215.087 11.2703L272.025 7.16907L281.042 131.988ZM230.965 133.852L273.891 130.765C276.813 130.558 278.99 128.031 278.782 125.111L270.802 14.398C270.595 11.436 268.004 9.19897 265.04 9.42682L222.28 12.5131C219.337 12.7202 217.119 15.2887 217.347 18.23L225.347 129.005C225.555 131.884 228.063 134.059 230.965 133.852Z" fill="#C0D8FB"/>
<path d="M249.168 86.9368C257.629 86.3266 263.992 78.9781 263.382 70.5233C262.771 62.0686 255.418 55.7093 246.957 56.3194C238.497 56.9296 232.133 64.2781 232.744 72.7329C233.355 81.1876 240.708 87.5469 249.168 86.9368Z" fill="#C0D8FB"/>
<path d="M162.834 165.812C162.834 165.812 169.156 176.542 174.959 176.687C180.763 176.832 189.593 171.716 189.593 171.716C189.593 171.716 194.92 157.423 191.313 151.852C191.313 151.852 187.686 149.946 183.893 153.322C183.25 153.902 182.587 154.648 181.924 155.58C181.012 156.906 179.975 157.672 178.877 158.066C174.731 159.578 169.819 156.015 167.974 159.453C166.896 161.463 165.736 162.954 164.782 164.01C163.663 165.212 162.834 165.812 162.834 165.812Z" fill="#F9DDBF"/>
<path d="M253.661 322.55C253.661 322.55 269.206 186.256 182.732 176.687C182.732 176.687 115.617 192.657 132.365 322.55H253.661Z" fill="#F9DDBF"/>
<path d="M193.759 178.675C193.759 178.675 177.612 182.984 172.638 180.457C172.638 180.457 171.892 172.337 178.69 173.476C183.354 174.263 186.38 171.571 188.163 170.473C190.671 168.919 194.422 175.278 193.759 178.675Z" fill="#F99746"/>
<path d="M179.706 166.434C180.742 167.366 183.913 153.302 183.913 153.302C183.271 153.882 182.608 154.627 181.944 155.559C181.032 156.885 179.996 157.651 178.898 158.045C178.898 158.459 178.711 165.522 179.706 166.434Z" fill="#E5C1A1"/>
<path d="M164.803 164.01C165.031 164.176 172.493 169.541 173.508 169.541C174.545 169.541 167.995 159.433 167.995 159.433C166.938 161.442 165.756 162.954 164.803 164.01Z" fill="#E5C1A1"/>
<path d="M245.121 316.481V320.852C245.121 321.204 244.997 321.514 244.769 321.784C244.541 322.074 244.209 322.281 243.836 322.405C243.712 322.446 243.587 322.467 243.463 322.488C243.339 322.509 243.235 322.509 243.111 322.509H160.139C159.061 322.509 158.191 321.804 158.129 320.914C158.129 320.893 158.129 320.852 158.129 320.831V316.46C158.129 316.44 158.129 316.398 158.129 316.377C158.191 315.487 159.061 314.783 160.139 314.783H243.111C243.235 314.783 243.359 314.783 243.463 314.803C243.587 314.824 243.712 314.845 243.836 314.886C244.23 315.01 244.541 315.238 244.769 315.508C244.997 315.798 245.121 316.129 245.121 316.481Z" fill="#FFB93E"/>
<path d="M204.373 322.531H159.934C158.98 322.531 158.193 321.827 158.151 320.936C158.151 320.915 158.151 320.874 158.151 320.853V316.483C158.151 316.462 158.151 316.421 158.151 316.4C158.193 315.509 158.98 314.805 159.934 314.805H198.922C199.544 317.063 200.995 320.232 204.373 322.531Z" fill="#FFA412"/>
<path d="M235.006 314.783H234.074V322.529H235.006V314.783Z" fill="#FFA412"/>
<path d="M231.814 314.783H230.882V322.529H231.814V314.783Z" fill="#FFA412"/>
<path d="M228.001 314.783H227.068V322.529H228.001V314.783Z" fill="#FFA412"/>
<path d="M222.135 314.783H221.202V322.529H222.135V314.783Z" fill="#FFA412"/>
<path d="M215.917 314.783H214.984V322.529H215.917V314.783Z" fill="#FFA412"/>
<path d="M206.403 314.783H205.47V322.529H206.403V314.783Z" fill="#FFA412"/>
<path d="M197.511 314.783H196.578V322.529H197.511V314.783Z" fill="#FFA412"/>
<path d="M189.551 314.783H188.619V322.529H189.551V314.783Z" fill="#FFA412"/>
<path d="M238.053 314.783H237.121V322.529H238.053V314.783Z" fill="#FFA412"/>
<path d="M240.064 314.783H239.131V322.529H240.064V314.783Z" fill="#FFA412"/>
<path d="M241.991 314.783H241.059V322.529H241.991V314.783Z" fill="#FFA412"/>
<path d="M243.463 314.824V322.509C243.339 322.529 243.235 322.529 243.111 322.529H242.53V314.783H243.111C243.235 314.783 243.359 314.803 243.463 314.824Z" fill="#FFA412"/>
<path d="M244.769 315.528V321.784C244.541 322.074 244.209 322.281 243.836 322.405V314.886C244.209 315.031 244.541 315.259 244.769 315.528Z" fill="#FFA412"/>
<path d="M236.25 308.734V313.105C236.25 313.457 236.126 313.768 235.898 314.037C235.67 314.327 235.338 314.534 234.965 314.658C234.841 314.7 234.716 314.72 234.592 314.741C234.467 314.762 234.364 314.762 234.239 314.762H151.268C150.19 314.762 149.32 314.058 149.257 313.167C149.257 313.146 149.257 313.105 149.257 313.084V308.714C149.257 308.693 149.257 308.651 149.257 308.631C149.32 307.74 150.19 307.036 151.268 307.036H234.239C234.302 307.036 234.343 307.036 234.405 307.036C234.426 307.036 234.447 307.036 234.467 307.036C234.488 307.036 234.509 307.036 234.55 307.036C234.571 307.036 234.592 307.036 234.613 307.036C234.737 307.056 234.861 307.077 234.986 307.119C235.006 307.119 235.027 307.139 235.048 307.139C235.069 307.139 235.089 307.16 235.089 307.16C235.131 307.181 235.151 307.181 235.193 307.201C235.214 307.201 235.234 307.222 235.255 307.222C235.276 307.222 235.297 307.243 235.297 307.243C235.338 307.264 235.359 307.284 235.4 307.284C235.442 307.305 235.462 307.326 235.504 307.346C235.525 307.367 235.566 307.388 235.587 307.409C235.607 307.429 235.628 307.429 235.628 307.45C235.67 307.491 235.732 307.533 235.773 307.574C235.794 307.595 235.794 307.595 235.815 307.616C235.835 307.636 235.835 307.636 235.856 307.657C235.877 307.678 235.898 307.719 235.939 307.74C236.126 308.071 236.25 308.382 236.25 308.734Z" fill="#FFB93E"/>
<path d="M195.502 314.784H151.062C150.109 314.784 149.321 314.08 149.28 313.189C149.28 313.169 149.28 313.127 149.28 313.107V308.736C149.28 308.715 149.28 308.674 149.28 308.653C149.321 307.762 150.109 307.058 151.062 307.058H190.051C190.071 307.12 190.092 307.183 190.113 307.245C190.755 309.502 192.206 312.547 195.502 314.784Z" fill="#FFA412"/>
<path d="M226.135 307.056H225.202V314.803H226.135V307.056Z" fill="#FFA412"/>
<path d="M222.943 307.056H222.01V314.803H222.943V307.056Z" fill="#FFA412"/>
<path d="M219.129 307.056H218.196V314.803H219.129V307.056Z" fill="#FFA412"/>
<path d="M213.263 307.056H212.331V314.803H213.263V307.056Z" fill="#FFA412"/>
<path d="M207.045 307.056H206.113V314.803H207.045V307.056Z" fill="#FFA412"/>
<path d="M197.531 307.056H196.599V314.803H197.531V307.056Z" fill="#FFA412"/>
<path d="M188.639 307.056H187.707V314.803H188.639V307.056Z" fill="#FFA412"/>
<path d="M180.68 307.058H179.747V314.805H180.68V307.058Z" fill="#FFA412"/>
<path d="M229.182 307.056H228.249V314.803H229.182V307.056Z" fill="#FFA412"/>
<path d="M231.193 307.056H230.26V314.803H231.193V307.056Z" fill="#FFA412"/>
<path d="M233.12 307.056H232.187V314.803H233.12V307.056Z" fill="#FFA412"/>
<path d="M234.592 307.077V314.762C234.467 314.783 234.364 314.783 234.239 314.783H233.659V307.036H234.239C234.364 307.057 234.488 307.057 234.592 307.077Z" fill="#FFA412"/>
<path d="M235.898 307.802V314.058C235.67 314.348 235.338 314.555 234.965 314.679V307.16C235.338 307.284 235.67 307.512 235.898 307.802Z" fill="#FFA412"/>
<path d="M240.54 301.174V305.544C240.54 305.897 240.416 306.207 240.188 306.477C239.96 306.767 239.628 306.974 239.255 307.098C239.131 307.139 239.007 307.16 238.882 307.181C238.758 307.201 238.654 307.201 238.53 307.201H155.558C155.227 307.201 154.916 307.139 154.626 307.015C154.045 306.767 153.61 306.269 153.548 305.689C153.548 305.669 153.548 305.648 153.548 305.607C153.548 305.586 153.548 305.544 153.548 305.524V301.153C153.548 301.132 153.548 301.091 153.548 301.07C153.61 300.18 154.481 299.475 155.558 299.475H238.53C238.654 299.475 238.779 299.475 238.882 299.496C239.007 299.517 239.131 299.538 239.255 299.579C239.649 299.703 239.96 299.931 240.188 300.2C240.416 300.511 240.54 300.842 240.54 301.174Z" fill="#FFB93E"/>
<path d="M199.791 307.244H155.352C155.062 307.244 154.771 307.182 154.523 307.058C154.005 306.809 153.631 306.312 153.569 305.732C153.569 305.711 153.569 305.691 153.569 305.649C153.569 305.629 153.569 305.587 153.569 305.566V301.196C153.569 301.175 153.569 301.134 153.569 301.113C153.611 300.222 154.398 299.518 155.352 299.518H194.34C194.941 301.734 196.33 304.779 199.522 307.058C199.605 307.12 199.708 307.182 199.791 307.244Z" fill="#FFA412"/>
<path d="M230.425 299.496H229.493V307.243H230.425V299.496Z" fill="#FFA412"/>
<path d="M227.233 299.496H226.301V307.243H227.233V299.496Z" fill="#FFA412"/>
<path d="M223.42 299.496H222.487V307.243H223.42V299.496Z" fill="#FFA412"/>
<path d="M217.533 299.496H216.6V307.243H217.533V299.496Z" fill="#FFA412"/>
<path d="M211.336 299.496H210.403V307.243H211.336V299.496Z" fill="#FFA412"/>
<path d="M201.822 299.496H200.889V307.243H201.822V299.496Z" fill="#FFA412"/>
<path d="M192.93 299.496H191.997V307.243H192.93V299.496Z" fill="#FFA412"/>
<path d="M184.971 299.498H184.038V307.245H184.971V299.498Z" fill="#FFA412"/>
<path d="M233.472 299.496H232.54V307.243H233.472V299.496Z" fill="#FFA412"/>
<path d="M235.483 299.496H234.55V307.243H235.483V299.496Z" fill="#FFA412"/>
<path d="M237.411 299.496H236.478V307.243H237.411V299.496Z" fill="#FFA412"/>
<path d="M238.882 299.517V307.201C238.758 307.222 238.654 307.222 238.53 307.222H237.95V299.475H238.53C238.654 299.496 238.758 299.517 238.882 299.517Z" fill="#FFA412"/>
<path d="M240.188 300.242V306.497C239.96 306.787 239.628 306.994 239.255 307.119V299.6C239.628 299.745 239.96 299.952 240.188 300.242Z" fill="#FFA412"/>
<path d="M242.53 293.448V297.818C242.53 298.17 242.406 298.481 242.178 298.75C241.95 299.04 241.618 299.248 241.245 299.372C241.121 299.413 240.997 299.434 240.872 299.455C240.748 299.475 240.644 299.475 240.52 299.475H157.548C156.471 299.475 155.6 298.771 155.538 297.88C155.538 297.86 155.538 297.818 155.538 297.798V293.427C155.538 293.406 155.538 293.365 155.538 293.344C155.579 292.516 156.346 291.853 157.3 291.749C157.383 291.749 157.465 291.729 157.528 291.729H240.499C240.623 291.729 240.748 291.729 240.851 291.749C240.976 291.77 241.1 291.791 241.225 291.832C241.618 291.956 241.929 292.184 242.157 292.454C242.406 292.764 242.53 293.096 242.53 293.448Z" fill="#FFB93E"/>
<path d="M201.78 299.498H157.32C156.367 299.498 155.579 298.794 155.538 297.903C155.538 297.882 155.538 297.841 155.538 297.82V293.45C155.538 293.429 155.538 293.387 155.538 293.367C155.579 292.538 156.263 291.875 157.113 291.772C157.175 291.772 157.258 291.751 157.32 291.751H196.308C196.308 291.751 196.308 291.751 196.308 291.772C196.951 294.05 198.402 297.199 201.78 299.498Z" fill="#FFA412"/>
<path d="M232.415 291.749H231.483V299.496H232.415V291.749Z" fill="#FFA412"/>
<path d="M229.223 291.749H228.291V299.496H229.223V291.749Z" fill="#FFA412"/>
<path d="M225.389 291.749H224.456V299.496H225.389V291.749Z" fill="#FFA412"/>
<path d="M219.523 291.749H218.59V299.496H219.523V291.749Z" fill="#FFA412"/>
<path d="M213.326 291.749H212.393V299.496H213.326V291.749Z" fill="#FFA412"/>
<path d="M203.812 291.749H202.879V299.496H203.812V291.749Z" fill="#FFA412"/>
<path d="M194.899 291.749H193.966V299.496H194.899V291.749Z" fill="#FFA412"/>
<path d="M186.96 291.749H186.028V299.496H186.96V291.749Z" fill="#FFA412"/>
<path d="M235.462 291.749H234.53V299.496H235.462V291.749Z" fill="#FFA412"/>
<path d="M237.473 291.749H236.54V299.496H237.473V291.749Z" fill="#FFA412"/>
<path d="M239.401 291.749H238.468V299.496H239.401V291.749Z" fill="#FFA412"/>
<path d="M240.872 291.791V299.475C240.748 299.496 240.644 299.496 240.52 299.496H239.939V291.749H240.52C240.644 291.749 240.748 291.77 240.872 291.791Z" fill="#FFA412"/>
<path d="M242.178 292.495V298.75C241.95 299.04 241.618 299.248 241.245 299.372V291.853C241.618 291.998 241.95 292.226 242.178 292.495Z" fill="#FFA412"/>
<path d="M236.416 285.722V290.092C236.416 290.444 236.291 290.755 236.063 291.024C235.835 291.314 235.504 291.522 235.131 291.646C235.006 291.687 234.882 291.708 234.758 291.729C234.716 291.729 234.675 291.749 234.633 291.749C234.613 291.749 234.592 291.749 234.571 291.749C234.55 291.749 234.53 291.749 234.509 291.749C234.467 291.749 234.447 291.749 234.405 291.749H151.455C150.377 291.749 149.506 291.045 149.444 290.154C149.444 290.134 149.444 290.092 149.444 290.072V285.701C149.444 285.68 149.444 285.639 149.444 285.618C149.444 285.598 149.444 285.577 149.444 285.556C149.527 284.852 150.149 284.251 150.957 284.085C150.978 284.085 150.999 284.085 151.019 284.065C151.164 284.044 151.309 284.023 151.455 284.023H234.426C234.488 284.023 234.55 284.023 234.613 284.023C234.633 284.023 234.675 284.023 234.695 284.023C234.716 284.023 234.758 284.023 234.778 284.044C234.903 284.065 235.027 284.085 235.151 284.127C235.545 284.251 235.856 284.479 236.084 284.748C236.291 285.038 236.416 285.37 236.416 285.722Z" fill="#FFB93E"/>
<path d="M195.687 291.772H151.227C150.273 291.772 149.485 291.068 149.444 290.177C149.444 290.156 149.444 290.115 149.444 290.094V285.724C149.444 285.703 149.444 285.661 149.444 285.641C149.444 285.62 149.444 285.599 149.444 285.579C149.506 284.854 150.087 284.253 150.833 284.087C150.853 284.087 150.874 284.066 150.916 284.066C151.019 284.046 151.123 284.046 151.227 284.046H190.215C190.215 284.066 190.215 284.087 190.235 284.108C190.857 286.366 192.308 289.473 195.687 291.772C195.666 291.772 195.666 291.772 195.687 291.772Z" fill="#FFA412"/>
<path d="M226.322 284.023H225.389V291.77H226.322V284.023Z" fill="#FFA412"/>
<path d="M223.13 284.023H222.197V291.77H223.13V284.023Z" fill="#FFA412"/>
<path d="M219.295 284.023H218.362V291.77H219.295V284.023Z" fill="#FFA412"/>
<path d="M213.429 284.023H212.496V291.77H213.429V284.023Z" fill="#FFA412"/>
<path d="M207.232 284.023H206.299V291.77H207.232V284.023Z" fill="#FFA412"/>
<path d="M197.718 284.023H196.785V291.77H197.718V284.023Z" fill="#FFA412"/>
<path d="M188.805 284.023H187.872V291.77H188.805V284.023Z" fill="#FFA412"/>
<path d="M180.846 284.023H179.913V291.77H180.846V284.023Z" fill="#FFA412"/>
<path d="M229.348 284.023H228.415V291.77H229.348V284.023Z" fill="#FFA412"/>
<path d="M231.358 284.023H230.426V291.77H231.358V284.023Z" fill="#FFA412"/>
<path d="M233.307 284.023H232.374V291.77H233.307V284.023Z" fill="#FFA412"/>
<path d="M234.778 284.065V291.749C234.654 291.77 234.55 291.77 234.426 291.77H233.846V284.023H234.426C234.53 284.023 234.654 284.044 234.778 284.065Z" fill="#FFA412"/>
<path d="M236.084 284.769V291.024C235.856 291.314 235.525 291.521 235.151 291.646V284.127C235.525 284.272 235.856 284.5 236.084 284.769Z" fill="#FFA412"/>
<path d="M236.25 278.037V282.408C236.25 282.76 236.126 283.07 235.898 283.34C235.67 283.63 235.338 283.837 234.965 283.961C234.882 283.982 234.778 284.023 234.675 284.044C234.654 284.044 234.613 284.044 234.592 284.065C234.467 284.085 234.364 284.085 234.239 284.085H151.268C151.185 284.085 151.102 284.085 150.999 284.065C150.957 284.065 150.936 284.065 150.895 284.044C149.983 283.899 149.299 283.257 149.257 282.47C149.257 282.449 149.257 282.408 149.257 282.387V278.016C149.257 277.996 149.257 277.954 149.257 277.934C149.32 277.043 150.19 276.339 151.268 276.339H234.239C234.302 276.339 234.343 276.339 234.405 276.339C234.426 276.339 234.447 276.339 234.467 276.339C234.488 276.339 234.509 276.339 234.55 276.339C234.571 276.339 234.592 276.339 234.613 276.339C234.737 276.359 234.861 276.38 234.986 276.421C235.006 276.421 235.027 276.442 235.048 276.442C235.069 276.442 235.089 276.463 235.089 276.463C235.131 276.484 235.151 276.484 235.193 276.504C235.234 276.525 235.276 276.546 235.297 276.566C235.338 276.587 235.359 276.608 235.4 276.608C235.442 276.629 235.462 276.649 235.504 276.67C235.525 276.691 235.566 276.711 235.587 276.732C235.607 276.753 235.628 276.753 235.628 276.774C235.67 276.815 235.732 276.856 235.773 276.898C235.794 276.919 235.794 276.919 235.815 276.939C235.835 276.96 235.835 276.96 235.856 276.981C235.877 277.001 235.898 277.043 235.939 277.064C236.126 277.354 236.25 277.685 236.25 278.037Z" fill="#FFB93E"/>
<path d="M195.5 284.087H151.061C151.019 284.087 150.999 284.087 150.957 284.087C150.916 284.087 150.874 284.087 150.833 284.087C149.983 283.984 149.299 283.321 149.257 282.492C149.257 282.472 149.257 282.43 149.257 282.409V278.039C149.257 278.018 149.257 277.977 149.257 277.956C149.299 277.065 150.087 276.361 151.04 276.361H190.028C190.049 276.423 190.069 276.485 190.09 276.548C190.733 278.785 192.184 281.809 195.417 284.046C195.459 284.046 195.479 284.066 195.5 284.087Z" fill="#FFA412"/>
<path d="M226.135 276.339H225.202V284.085H226.135V276.339Z" fill="#FFA412"/>
<path d="M222.943 276.339H222.01V284.085H222.943V276.339Z" fill="#FFA412"/>
<path d="M219.129 276.339H218.196V284.085H219.129V276.339Z" fill="#FFA412"/>
<path d="M213.263 276.339H212.331V284.085H213.263V276.339Z" fill="#FFA412"/>
<path d="M207.045 276.339H206.113V284.085H207.045V276.339Z" fill="#FFA412"/>
<path d="M197.531 276.339H196.599V284.085H197.531V276.339Z" fill="#FFA412"/>
<path d="M188.639 276.339H187.707V284.085H188.639V276.339Z" fill="#FFA412"/>
<path d="M180.68 276.339H179.747V284.085H180.68V276.339Z" fill="#FFA412"/>
<path d="M229.182 276.339H228.249V284.085H229.182V276.339Z" fill="#FFA412"/>
<path d="M231.193 276.339H230.26V284.085H231.193V276.339Z" fill="#FFA412"/>
<path d="M233.12 276.339H232.187V284.085H233.12V276.339Z" fill="#FFA412"/>
<path d="M234.592 276.38V284.065C234.467 284.085 234.364 284.085 234.239 284.085H233.659V276.339H234.239C234.364 276.339 234.488 276.359 234.592 276.38Z" fill="#FFA412"/>
<path d="M235.898 277.084V283.34C235.67 283.63 235.338 283.837 234.965 283.961V276.442C235.338 276.587 235.67 276.815 235.898 277.084Z" fill="#FFA412"/>
<path d="M240.54 270.477V274.847C240.54 275.199 240.416 275.51 240.188 275.779C239.96 276.069 239.628 276.276 239.255 276.401C239.131 276.442 239.007 276.463 238.882 276.484C238.758 276.504 238.654 276.504 238.53 276.504H155.558C155.227 276.504 154.916 276.442 154.626 276.318C154.045 276.069 153.61 275.572 153.548 274.992C153.548 274.972 153.548 274.951 153.548 274.909C153.548 274.889 153.548 274.847 153.548 274.827V270.456C153.548 270.435 153.548 270.394 153.548 270.373C153.61 269.483 154.481 268.778 155.558 268.778H238.53C238.654 268.778 238.779 268.778 238.882 268.799C239.007 268.82 239.131 268.84 239.255 268.882C239.649 269.006 239.96 269.234 240.188 269.503C240.416 269.814 240.54 270.125 240.54 270.477Z" fill="#FFB93E"/>
<path d="M199.791 276.547H155.352C155.062 276.547 154.771 276.485 154.523 276.36C154.004 276.112 153.631 275.615 153.569 275.035C153.569 275.014 153.569 274.993 153.569 274.952C153.569 274.931 153.569 274.89 153.569 274.869V270.499C153.569 270.478 153.569 270.436 153.569 270.416C153.611 269.525 154.398 268.821 155.352 268.821H194.34C194.941 271.037 196.33 274.082 199.522 276.36C199.605 276.402 199.708 276.464 199.791 276.547Z" fill="#FFA412"/>
<path d="M230.425 268.799H229.493V276.546H230.425V268.799Z" fill="#FFA412"/>
<path d="M227.233 268.799H226.301V276.546H227.233V268.799Z" fill="#FFA412"/>
<path d="M223.42 268.799H222.487V276.546H223.42V268.799Z" fill="#FFA412"/>
<path d="M217.533 268.799H216.6V276.546H217.533V268.799Z" fill="#FFA412"/>
<path d="M211.336 268.799H210.403V276.546H211.336V268.799Z" fill="#FFA412"/>
<path d="M201.822 268.799H200.889V276.546H201.822V268.799Z" fill="#FFA412"/>
<path d="M192.93 268.799H191.997V276.546H192.93V268.799Z" fill="#FFA412"/>
<path d="M184.971 268.801H184.038V276.548H184.971V268.801Z" fill="#FFA412"/>
<path d="M233.472 268.799H232.54V276.546H233.472V268.799Z" fill="#FFA412"/>
<path d="M235.483 268.799H234.55V276.546H235.483V268.799Z" fill="#FFA412"/>
<path d="M237.411 268.799H236.478V276.546H237.411V268.799Z" fill="#FFA412"/>
<path d="M238.882 268.82V276.504C238.758 276.525 238.654 276.525 238.53 276.525H237.95V268.778H238.53C238.654 268.799 238.758 268.799 238.882 268.82Z" fill="#FFA412"/>
<path d="M240.188 269.545V275.8C239.96 276.09 239.628 276.297 239.255 276.421V268.903C239.628 269.027 239.96 269.255 240.188 269.545Z" fill="#FFA412"/>
<path d="M247.318 262.73V267.101C247.318 267.453 247.194 267.763 246.966 268.033C246.738 268.323 246.406 268.53 246.033 268.654C245.909 268.695 245.785 268.716 245.66 268.737C245.536 268.758 245.432 268.758 245.308 268.758H162.336C161.259 268.758 160.388 268.053 160.326 267.163C160.326 267.142 160.326 267.1 160.326 267.08V262.709C160.326 262.689 160.326 262.647 160.326 262.626C160.367 261.798 161.134 261.135 162.088 261.031C162.171 261.031 162.253 261.011 162.316 261.011H245.308C245.432 261.011 245.557 261.011 245.66 261.031C245.785 261.052 245.909 261.073 246.033 261.114C246.427 261.239 246.738 261.466 246.966 261.736C247.194 262.067 247.318 262.399 247.318 262.73Z" fill="#FFB93E"/>
<path d="M206.569 268.8H162.13C161.176 268.8 160.388 268.096 160.347 267.205C160.347 267.184 160.347 267.143 160.347 267.122V262.752C160.347 262.731 160.347 262.69 160.347 262.669C160.388 261.84 161.072 261.178 161.922 261.074C161.984 261.074 162.067 261.053 162.13 261.053H201.118C201.118 261.053 201.118 261.053 201.118 261.074C201.74 263.352 203.19 266.48 206.569 268.8Z" fill="#FFA412"/>
<path d="M237.204 261.052H236.271V268.799H237.204V261.052Z" fill="#FFA412"/>
<path d="M234.011 261.052H233.079V268.799H234.011V261.052Z" fill="#FFA412"/>
<path d="M230.198 261.052H229.265V268.799H230.198V261.052Z" fill="#FFA412"/>
<path d="M224.332 261.052H223.399V268.799H224.332V261.052Z" fill="#FFA412"/>
<path d="M218.114 261.052H217.181V268.799H218.114V261.052Z" fill="#FFA412"/>
<path d="M208.6 261.052H207.667V268.799H208.6V261.052Z" fill="#FFA412"/>
<path d="M199.708 261.052H198.775V268.799H199.708V261.052Z" fill="#FFA412"/>
<path d="M191.748 261.054H190.816V268.801H191.748V261.054Z" fill="#FFA412"/>
<path d="M240.25 261.052H239.318V268.799H240.25V261.052Z" fill="#FFA412"/>
<path d="M242.261 261.052H241.328V268.799H242.261V261.052Z" fill="#FFA412"/>
<path d="M244.188 261.052H243.256V268.799H244.188V261.052Z" fill="#FFA412"/>
<path d="M245.66 261.073V268.758C245.536 268.778 245.432 268.778 245.308 268.778H244.727V261.031H245.308C245.432 261.052 245.557 261.073 245.66 261.073Z" fill="#FFA412"/>
<path d="M246.966 261.798V268.053C246.738 268.343 246.406 268.55 246.033 268.675V261.156C246.406 261.301 246.738 261.508 246.966 261.798Z" fill="#FFA412"/>
<path d="M236.416 255.004V259.374C236.416 259.727 236.291 260.037 236.063 260.307C235.835 260.597 235.504 260.804 235.131 260.928C235.006 260.969 234.882 260.99 234.758 261.011C234.716 261.011 234.675 261.031 234.633 261.031C234.592 261.031 234.571 261.031 234.53 261.031C234.509 261.031 234.509 261.031 234.488 261.031C234.447 261.031 234.426 261.031 234.385 261.031H151.455C150.377 261.031 149.506 260.327 149.444 259.437C149.444 259.416 149.444 259.374 149.444 259.354V254.983C149.444 254.962 149.444 254.921 149.444 254.9C149.506 254.01 150.377 253.305 151.455 253.305H234.426C234.467 253.305 234.488 253.305 234.53 253.305C234.613 253.305 234.695 253.326 234.778 253.326C234.903 253.347 235.027 253.368 235.151 253.409C235.214 253.43 235.276 253.45 235.317 253.471C235.359 253.492 235.379 253.492 235.421 253.513C235.421 253.513 235.421 253.513 235.442 253.513C235.483 253.533 235.504 253.554 235.545 253.575H235.566C235.587 253.595 235.628 253.616 235.649 253.637C235.711 253.678 235.794 253.72 235.856 253.782C235.877 253.803 235.898 253.823 235.918 253.823C235.939 253.823 235.939 253.844 235.96 253.865C235.981 253.885 236.001 253.906 236.022 253.927C236.043 253.948 236.084 253.989 236.105 254.01C236.291 254.341 236.416 254.673 236.416 255.004Z" fill="#FFB93E"/>
<path d="M195.687 261.074H151.227C150.273 261.074 149.485 260.37 149.444 259.479C149.444 259.458 149.444 259.417 149.444 259.396V255.026C149.444 255.005 149.444 254.964 149.444 254.943C149.485 254.052 150.273 253.348 151.227 253.348H190.215C190.235 253.41 190.256 253.472 190.256 253.534C190.919 255.771 192.37 258.816 195.687 261.074C195.666 261.053 195.666 261.074 195.687 261.074Z" fill="#FFA412"/>
<path d="M226.322 253.326H225.389V261.073H226.322V253.326Z" fill="#FFA412"/>
<path d="M223.13 253.326H222.197V261.073H223.13V253.326Z" fill="#FFA412"/>
<path d="M219.295 253.326H218.362V261.073H219.295V253.326Z" fill="#FFA412"/>
<path d="M213.429 253.326H212.496V261.073H213.429V253.326Z" fill="#FFA412"/>
<path d="M207.232 253.326H206.299V261.073H207.232V253.326Z" fill="#FFA412"/>
<path d="M197.718 253.326H196.785V261.073H197.718V253.326Z" fill="#FFA412"/>
<path d="M188.805 253.326H187.872V261.073H188.805V253.326Z" fill="#FFA412"/>
<path d="M180.846 253.328H179.913V261.075H180.846V253.328Z" fill="#FFA412"/>
<path d="M229.348 253.326H228.415V261.073H229.348V253.326Z" fill="#FFA412"/>
<path d="M231.358 253.326H230.426V261.073H231.358V253.326Z" fill="#FFA412"/>
<path d="M233.307 253.326H232.374V261.073H233.307V253.326Z" fill="#FFA412"/>
<path d="M234.778 253.347V261.031C234.654 261.052 234.55 261.052 234.426 261.052H233.846V253.305H234.426C234.53 253.326 234.654 253.326 234.778 253.347Z" fill="#FFA412"/>
<path d="M236.084 254.072V260.327C235.856 260.617 235.525 260.824 235.151 260.949V253.43C235.525 253.575 235.856 253.782 236.084 254.072Z" fill="#FFA412"/>
<path d="M242.532 247.444V251.814C242.532 252.166 242.408 252.477 242.18 252.746C241.952 253.036 241.62 253.243 241.247 253.368C241.123 253.409 240.998 253.43 240.874 253.45C240.75 253.471 240.646 253.471 240.522 253.471H157.55C157.218 253.471 156.928 253.409 156.659 253.285C156.058 253.036 155.622 252.518 155.56 251.938C155.56 251.918 155.56 251.897 155.56 251.876C155.56 251.855 155.56 251.814 155.56 251.793V247.423C155.56 247.402 155.56 247.361 155.56 247.34C155.602 246.511 156.369 245.849 157.322 245.745C157.405 245.745 157.488 245.724 157.55 245.724H240.522C240.646 245.724 240.77 245.724 240.874 245.745C240.998 245.766 241.123 245.786 241.247 245.828C241.641 245.952 241.952 246.18 242.18 246.449C242.408 246.781 242.532 247.091 242.532 247.444Z" fill="#FFB93E"/>
<path d="M201.78 253.514H157.32C157.03 253.514 156.761 253.452 156.512 253.327C155.973 253.079 155.579 252.561 155.538 251.981C155.538 251.96 155.538 251.939 155.538 251.919C155.538 251.898 155.538 251.857 155.538 251.836V247.465C155.538 247.445 155.538 247.403 155.538 247.382C155.579 246.554 156.263 245.891 157.113 245.788C157.175 245.788 157.258 245.767 157.32 245.767H196.308C196.308 245.767 196.308 245.767 196.308 245.788C196.91 248.004 198.319 251.049 201.511 253.327C201.615 253.389 201.698 253.451 201.78 253.514Z" fill="#FFA412"/>
<path d="M232.415 245.766H231.483V253.513H232.415V245.766Z" fill="#FFA412"/>
<path d="M229.223 245.766H228.291V253.513H229.223V245.766Z" fill="#FFA412"/>
<path d="M225.389 245.766H224.456V253.513H225.389V245.766Z" fill="#FFA412"/>
<path d="M219.523 245.766H218.59V253.513H219.523V245.766Z" fill="#FFA412"/>
<path d="M213.326 245.766H212.393V253.513H213.326V245.766Z" fill="#FFA412"/>
<path d="M203.812 245.766H202.879V253.513H203.812V245.766Z" fill="#FFA412"/>
<path d="M194.899 245.766H193.966V253.513H194.899V245.766Z" fill="#FFA412"/>
<path d="M186.96 245.768H186.028V253.514H186.96V245.768Z" fill="#FFA412"/>
<path d="M235.462 245.766H234.53V253.513H235.462V245.766Z" fill="#FFA412"/>
<path d="M237.473 245.766H236.54V253.513H237.473V245.766Z" fill="#FFA412"/>
<path d="M239.401 245.766H238.468V253.513H239.401V245.766Z" fill="#FFA412"/>
<path d="M240.872 245.786V253.471C240.748 253.492 240.644 253.492 240.52 253.492H239.939V245.745H240.52C240.644 245.766 240.748 245.766 240.872 245.786Z" fill="#FFA412"/>
<path d="M242.178 246.511V252.767C241.95 253.057 241.618 253.264 241.245 253.388V245.869C241.618 245.994 241.95 246.221 242.178 246.511Z" fill="#FFA412"/>
<path d="M245.121 239.717V244.088C245.121 244.44 244.997 244.751 244.769 245.02C244.541 245.31 244.209 245.517 243.836 245.641C243.712 245.683 243.587 245.704 243.463 245.724C243.422 245.724 243.38 245.745 243.339 245.745C243.318 245.745 243.297 245.745 243.277 245.745C243.256 245.745 243.235 245.745 243.214 245.745C243.173 245.745 243.152 245.745 243.111 245.745H160.139C159.061 245.745 158.191 245.041 158.129 244.15C158.129 244.129 158.129 244.088 158.129 244.067V239.697C158.129 239.676 158.129 239.635 158.129 239.614C158.191 238.723 159.061 238.019 160.139 238.019H243.111C243.235 238.019 243.359 238.019 243.463 238.04C243.587 238.06 243.712 238.081 243.836 238.123C244.23 238.247 244.541 238.475 244.769 238.744C244.997 239.055 245.121 239.365 245.121 239.717Z" fill="#FFB93E"/>
<path d="M204.372 245.788H159.933C158.979 245.788 158.191 245.083 158.15 244.193C158.15 244.172 158.15 244.131 158.15 244.11V239.739C158.15 239.719 158.15 239.677 158.15 239.656C158.191 238.766 158.979 238.061 159.933 238.061H198.921C199.542 240.319 200.993 243.447 204.372 245.788C204.372 245.767 204.372 245.767 204.372 245.788Z" fill="#FFA412"/>
<path d="M235.006 238.04H234.074V245.786H235.006V238.04Z" fill="#FFA412"/>
<path d="M231.814 238.04H230.882V245.786H231.814V238.04Z" fill="#FFA412"/>
<path d="M228.001 238.04H227.068V245.786H228.001V238.04Z" fill="#FFA412"/>
<path d="M222.135 238.04H221.202V245.786H222.135V238.04Z" fill="#FFA412"/>
<path d="M215.917 238.04H214.984V245.786H215.917V238.04Z" fill="#FFA412"/>
<path d="M206.403 238.04H205.47V245.786H206.403V238.04Z" fill="#FFA412"/>
<path d="M197.511 238.04H196.578V245.786H197.511V238.04Z" fill="#FFA412"/>
<path d="M189.572 238.04H188.619V245.786H189.572V238.04Z" fill="#FFA412"/>
<path d="M238.053 238.04H237.121V245.786H238.053V238.04Z" fill="#FFA412"/>
<path d="M240.064 238.04H239.131V245.786H240.064V238.04Z" fill="#FFA412"/>
<path d="M241.991 238.04H241.059V245.786H241.991V238.04Z" fill="#FFA412"/>
<path d="M243.463 238.06V245.745C243.339 245.766 243.235 245.766 243.111 245.766H242.53V238.04H243.111C243.235 238.04 243.359 238.04 243.463 238.06Z" fill="#FFA412"/>
<path d="M244.769 238.785V245.041C244.541 245.331 244.209 245.538 243.836 245.662V238.143C244.209 238.268 244.541 238.495 244.769 238.785Z" fill="#FFA412"/>
<path d="M153.32 322.55C175.093 322.55 192.743 304.912 192.743 283.153C192.743 261.395 175.093 243.757 153.32 243.757C131.547 243.757 113.897 261.395 113.897 283.153C113.897 304.912 131.547 322.55 153.32 322.55Z" fill="#E2810E"/>
<path d="M149.879 322.55C171.652 322.55 189.303 304.912 189.303 283.153C189.303 261.395 171.652 243.757 149.879 243.757C128.106 243.757 110.456 261.395 110.456 283.153C110.456 304.912 128.106 322.55 149.879 322.55Z" fill="#FFB93E"/>
<path d="M149.879 319.505C140.283 319.505 131.266 315.777 124.468 308.983C117.69 302.21 113.938 293.179 113.938 283.588C113.938 273.998 117.669 264.988 124.468 258.194C131.245 251.421 140.283 247.671 149.879 247.671C159.476 247.671 168.492 251.4 175.291 258.194C182.069 264.967 185.821 273.998 185.821 283.588C185.821 293.179 182.09 302.189 175.291 308.983C168.492 315.777 159.476 319.505 149.879 319.505ZM149.879 249.846C131.245 249.846 116.094 264.988 116.094 283.609C116.094 302.23 131.245 317.372 149.879 317.372C168.513 317.372 183.665 302.23 183.665 283.609C183.665 264.988 168.513 249.846 149.879 249.846Z" fill="#FFA412"/>
<path d="M154.833 294.028C154.916 293.261 154.895 292.557 154.75 291.936C154.605 291.314 154.315 290.734 153.859 290.196C153.424 289.657 152.822 289.139 152.097 288.642C151.351 288.145 150.46 287.627 149.361 287.11C147.496 286.198 145.817 285.266 144.304 284.334C142.811 283.402 141.547 282.366 140.531 281.268C139.516 280.15 138.769 278.907 138.293 277.519C137.816 276.131 137.692 274.537 137.899 272.735C138.085 271.16 138.541 269.773 139.246 268.55C139.951 267.328 140.884 266.293 142.024 265.464C143.164 264.636 144.49 263.993 146.003 263.559C147.516 263.124 149.174 262.937 150.978 262.979L151.682 257.055L156.45 257.614L155.745 263.621C157.424 264.035 158.916 264.677 160.222 265.526C161.528 266.376 162.606 267.39 163.456 268.592C164.305 269.793 164.907 271.16 165.238 272.714C165.591 274.267 165.653 275.966 165.425 277.789L156.823 276.774C157.092 274.557 156.781 272.859 155.932 271.637C155.082 270.415 153.838 269.71 152.18 269.524C151.289 269.42 150.501 269.441 149.817 269.628C149.133 269.793 148.573 270.083 148.097 270.456C147.62 270.85 147.268 271.305 146.998 271.885C146.729 272.445 146.563 273.066 146.48 273.749C146.397 274.433 146.418 275.054 146.563 275.634C146.687 276.214 146.977 276.753 147.413 277.291C147.848 277.809 148.428 278.348 149.195 278.845C149.941 279.363 150.895 279.901 152.035 280.481C153.88 281.434 155.538 282.366 157.03 283.319C158.523 284.272 159.766 285.287 160.782 286.405C161.797 287.524 162.544 288.787 163 290.154C163.476 291.542 163.601 293.116 163.393 294.918C163.207 296.534 162.751 297.963 162.025 299.185C161.3 300.408 160.367 301.422 159.227 302.251C158.087 303.059 156.74 303.68 155.227 304.074C153.693 304.467 152.035 304.654 150.232 304.612L149.568 310.122L144.822 309.563L145.464 304.094C143.827 303.742 142.293 303.183 140.821 302.458C139.35 301.712 138.085 300.76 137.008 299.579C135.93 298.398 135.142 296.969 134.624 295.291C134.106 293.614 133.961 291.687 134.23 289.471L142.832 290.486C142.666 291.791 142.728 292.909 142.998 293.821C143.267 294.732 143.661 295.498 144.221 296.099C144.78 296.7 145.423 297.156 146.19 297.446C146.957 297.756 147.744 297.943 148.553 298.046C149.485 298.15 150.314 298.129 151.061 297.984C151.786 297.818 152.429 297.57 152.947 297.197C153.465 296.824 153.9 296.368 154.191 295.809C154.564 295.333 154.75 294.711 154.833 294.028Z" fill="#FFA412"/>
<path d="M348.509 71.6289V315.59C348.509 319.422 345.379 322.55 341.545 322.55H219.461C215.626 322.55 212.496 319.422 212.496 315.59V71.6289C212.496 67.797 215.626 64.6693 219.461 64.6693H341.545C345.379 64.6693 348.509 67.797 348.509 71.6289Z" fill="#2B478B"/>
<path opacity="0.4" d="M300.442 74.4253H265.082C264.335 74.4253 263.714 73.8039 263.714 73.0582C263.714 72.3125 264.335 71.6911 265.082 71.6911H300.442C301.189 71.6911 301.81 72.3125 301.81 73.0582C301.831 73.8246 301.209 74.4253 300.442 74.4253Z" fill="#5E92DD"/>
<path opacity="0.4" d="M258.822 74.4253C258.055 74.4253 257.454 73.8039 257.454 73.0582C257.454 72.3125 258.076 71.6911 258.822 71.6911C259.568 71.6911 260.19 72.3125 260.19 73.0582C260.19 73.8246 259.568 74.4253 258.822 74.4253Z" fill="#5E92DD"/>
<path d="M291.074 308.299C291.074 310.723 290.1 312.939 288.504 314.534C286.887 316.15 284.669 317.165 282.202 317.165C277.311 317.165 273.331 313.188 273.331 308.299C273.331 305.151 274.969 302.396 277.456 300.822C278.824 299.952 280.461 299.434 282.202 299.434C287.094 299.434 291.074 303.411 291.074 308.299Z" fill="#2B478B"/>
<path d="M341.254 80.5564H220.663V295.084H341.254V80.5564Z" fill="#DCEAFF"/>
<path d="M288.504 314.534C286.887 316.15 284.669 317.165 282.202 317.165C277.311 317.165 273.331 313.188 273.331 308.299C273.331 305.151 274.969 302.396 277.456 300.822C278.326 304.592 280.897 310.909 288.504 314.534Z" fill="#233862"/>
<path d="M201.428 207.715C201.428 207.715 198.443 211.92 195.707 211.982C192.971 212.045 188.805 210.035 188.805 210.035C188.805 210.035 186.297 204.443 187.997 202.247C187.997 202.247 189.717 201.501 191.5 202.827C191.811 203.055 192.122 203.345 192.432 203.718C192.868 204.236 193.344 204.546 193.863 204.691C195.811 205.292 198.132 203.883 199.003 205.23C199.5 206.017 200.06 206.597 200.516 207.011C201.034 207.488 201.428 207.715 201.428 207.715Z" fill="#FFEDDC"/>
<path d="M162.481 238.04C162.481 238.04 173.052 212.459 192.059 211.982C192.059 211.982 209.615 213.929 210.59 238.04H162.481Z" fill="#FFEDDC"/>
<path d="M186.836 212.749C186.836 212.749 194.464 214.447 196.806 213.453C196.806 213.453 197.158 210.263 193.946 210.719C191.748 211.029 190.318 209.973 189.468 209.538C188.308 208.937 186.525 211.423 186.836 212.749Z" fill="#DB6A1D"/>
<path d="M193.469 207.964C192.971 208.337 191.479 202.806 191.479 202.806C191.79 203.034 192.101 203.324 192.412 203.697C192.847 204.215 193.324 204.526 193.842 204.671C193.863 204.836 193.945 207.612 193.469 207.964Z" fill="#E5C1A1"/>
<path d="M200.495 207.011C200.392 207.073 196.868 209.186 196.391 209.186C195.894 209.186 198.982 205.23 198.982 205.23C199.5 205.996 200.06 206.597 200.495 207.011Z" fill="#E5C1A1"/>
<path d="M172.804 230.894C172.617 230.728 180.286 219.605 182.38 219.522C184.494 219.439 189.24 221.966 192.681 222.277C196.122 222.588 199.438 221.635 200.102 223.665C200.744 225.695 202.547 232.882 201.449 234.042C200.33 235.202 177.011 234.498 172.804 230.894Z" fill="#F9DDBF"/>
<path d="M341.027 80.5564H220.663V161.628H341.027V80.5564Z" fill="#F99746"/>
<path d="M322.476 148.641H239.463C237.659 148.641 236.188 147.17 236.188 145.368V98.1834C236.188 96.3813 237.659 94.9107 239.463 94.9107H322.476C324.279 94.9107 325.751 96.3813 325.751 98.1834V145.368C325.751 147.17 324.279 148.641 322.476 148.641ZM239.442 95.5114C237.97 95.5114 236.768 96.7128 236.768 98.1834V145.368C236.768 146.839 237.97 148.04 239.442 148.04H322.455C323.927 148.04 325.129 146.839 325.129 145.368V98.1834C325.129 96.7128 323.927 95.5114 322.455 95.5114H239.442Z" fill="#EBF3FA"/>
<path d="M264.356 137.808L245.204 137.953C244.396 137.953 243.733 137.311 243.712 136.503V136.317C243.712 135.509 244.354 134.846 245.163 134.825L264.315 134.68C265.123 134.68 265.786 135.322 265.807 136.13V136.317C265.828 137.124 265.165 137.787 264.356 137.808Z" fill="white"/>
<path d="M289.581 137.601L270.429 137.746C269.621 137.746 268.958 137.104 268.937 136.296V136.109C268.937 135.302 269.58 134.639 270.388 134.618L289.54 134.473C290.348 134.473 291.012 135.115 291.032 135.923V136.109C291.053 136.938 290.411 137.601 289.581 137.601Z" fill="white"/>
<path d="M247.173 118.795C247.173 119.499 247.07 120.058 246.821 120.514C246.51 121.073 246.054 121.363 245.411 121.363C244.769 121.363 244.292 121.094 243.981 120.535C243.733 120.1 243.608 119.52 243.608 118.815C243.608 118.111 243.712 117.552 243.961 117.096C244.271 116.537 244.727 116.247 245.37 116.247C246.013 116.247 246.489 116.516 246.8 117.075C247.028 117.531 247.153 118.09 247.173 118.795ZM246.282 118.795C246.282 118.36 246.22 117.987 246.116 117.697C245.95 117.262 245.702 117.034 245.37 117.034C245.018 117.034 244.769 117.262 244.624 117.697C244.52 117.987 244.479 118.36 244.479 118.815C244.479 119.996 244.79 120.597 245.411 120.597C245.764 120.597 246.013 120.369 246.158 119.913C246.241 119.623 246.282 119.25 246.282 118.795Z" fill="white"/>
<path d="M251.091 118.772C251.091 119.477 250.987 120.036 250.738 120.492C250.427 121.051 249.971 121.341 249.329 121.341C248.686 121.341 248.21 121.072 247.899 120.512C247.65 120.077 247.526 119.497 247.526 118.793C247.526 118.089 247.629 117.53 247.878 117.074C248.189 116.515 248.645 116.225 249.287 116.225C249.93 116.225 250.407 116.494 250.718 117.053C250.966 117.488 251.091 118.068 251.091 118.772ZM250.22 118.772C250.22 118.337 250.158 117.965 250.054 117.675C249.889 117.24 249.64 117.012 249.308 117.012C248.956 117.012 248.707 117.24 248.562 117.675C248.458 117.965 248.417 118.337 248.417 118.793C248.417 119.974 248.728 120.574 249.35 120.574C249.702 120.574 249.951 120.347 250.096 119.891C250.179 119.58 250.22 119.207 250.22 118.772Z" fill="white"/>
<path d="M255.029 118.731C255.029 119.435 254.925 119.995 254.677 120.45C254.366 121.009 253.91 121.299 253.267 121.299C252.625 121.299 252.148 121.03 251.837 120.471C251.588 120.036 251.464 119.456 251.464 118.752C251.464 118.047 251.567 117.488 251.816 117.033C252.127 116.473 252.583 116.183 253.226 116.183C253.868 116.183 254.345 116.453 254.656 117.012C254.905 117.467 255.029 118.027 255.029 118.731ZM254.158 118.731C254.158 118.296 254.096 117.923 253.993 117.633C253.827 117.198 253.578 116.97 253.246 116.97C252.894 116.97 252.645 117.198 252.5 117.633C252.397 117.923 252.355 118.296 252.355 118.752C252.355 119.932 252.666 120.533 253.288 120.533C253.64 120.533 253.889 120.305 254.034 119.85C254.096 119.56 254.158 119.187 254.158 118.731Z" fill="white"/>
<path d="M258.967 118.71C258.967 119.415 258.863 119.974 258.615 120.429C258.304 120.989 257.848 121.279 257.205 121.279C256.563 121.279 256.086 121.009 255.775 120.45C255.526 120.015 255.402 119.435 255.402 118.731C255.402 118.027 255.506 117.467 255.754 117.012C256.065 116.453 256.521 116.163 257.164 116.163C257.806 116.163 258.283 116.432 258.594 116.991C258.822 117.426 258.946 118.006 258.967 118.71ZM258.076 118.71C258.076 118.275 258.014 117.902 257.91 117.612C257.744 117.177 257.495 116.95 257.164 116.95C256.811 116.95 256.563 117.177 256.418 117.612C256.314 117.902 256.273 118.275 256.273 118.731C256.273 119.912 256.584 120.512 257.205 120.512C257.558 120.512 257.806 120.284 257.951 119.829C258.034 119.518 258.076 119.145 258.076 118.71Z" fill="white"/>
<path d="M264.916 118.648C264.916 119.352 264.812 119.912 264.564 120.367C264.253 120.927 263.797 121.217 263.154 121.217C262.512 121.217 262.035 120.947 261.724 120.388C261.475 119.953 261.351 119.373 261.351 118.669C261.351 117.965 261.454 117.405 261.703 116.95C262.014 116.39 262.47 116.1 263.113 116.1C263.755 116.1 264.232 116.37 264.543 116.929C264.792 117.385 264.916 117.965 264.916 118.648ZM264.045 118.648C264.045 118.213 263.983 117.84 263.88 117.55C263.714 117.115 263.465 116.888 263.133 116.888C262.781 116.888 262.532 117.115 262.387 117.55C262.284 117.84 262.242 118.213 262.242 118.669C262.242 119.85 262.553 120.45 263.175 120.45C263.527 120.45 263.776 120.222 263.921 119.767C263.983 119.477 264.045 119.104 264.045 118.648Z" fill="white"/>
<path d="M268.854 118.627C268.854 119.332 268.751 119.891 268.502 120.347C268.191 120.906 267.735 121.196 267.092 121.196C266.45 121.196 265.973 120.927 265.662 120.367C265.413 119.932 265.289 119.352 265.289 118.648C265.289 117.944 265.393 117.385 265.641 116.929C265.952 116.37 266.408 116.08 267.051 116.08C267.693 116.08 268.17 116.349 268.481 116.908C268.709 117.364 268.833 117.923 268.854 118.627ZM267.963 118.627C267.963 118.192 267.901 117.82 267.797 117.53C267.631 117.095 267.383 116.867 267.051 116.867C266.699 116.867 266.45 117.095 266.305 117.53C266.201 117.82 266.16 118.192 266.16 118.648C266.16 119.829 266.471 120.429 267.092 120.429C267.445 120.429 267.693 120.202 267.839 119.746C267.921 119.435 267.963 119.083 267.963 118.627Z" fill="white"/>
<path d="M272.772 118.586C272.772 119.29 272.668 119.85 272.419 120.305C272.108 120.864 271.652 121.154 271.01 121.154C270.367 121.154 269.89 120.885 269.58 120.326C269.331 119.891 269.206 119.311 269.206 118.607C269.206 117.902 269.31 117.343 269.559 116.888C269.87 116.328 270.326 116.038 270.968 116.038C271.611 116.038 272.088 116.308 272.398 116.867C272.647 117.322 272.772 117.902 272.772 118.586ZM271.901 118.607C271.901 118.172 271.839 117.799 271.735 117.509C271.569 117.074 271.321 116.846 270.989 116.846C270.637 116.846 270.388 117.074 270.243 117.509C270.139 117.799 270.098 118.172 270.098 118.627C270.098 119.808 270.409 120.409 271.03 120.409C271.383 120.409 271.632 120.181 271.777 119.725C271.86 119.415 271.901 119.042 271.901 118.607Z" fill="white"/>
<path d="M276.71 118.565C276.71 119.27 276.606 119.829 276.357 120.284C276.046 120.844 275.59 121.134 274.948 121.134C274.305 121.134 273.829 120.864 273.518 120.305C273.269 119.87 273.145 119.29 273.145 118.586C273.145 117.882 273.248 117.322 273.497 116.867C273.808 116.308 274.264 116.018 274.906 116.018C275.549 116.018 276.026 116.287 276.337 116.846C276.585 117.302 276.71 117.861 276.71 118.565ZM275.818 118.565C275.818 118.13 275.756 117.757 275.653 117.467C275.487 117.033 275.238 116.805 274.906 116.805C274.554 116.805 274.305 117.033 274.16 117.467C274.057 117.757 274.015 118.13 274.015 118.586C274.015 119.767 274.326 120.367 274.948 120.367C275.3 120.367 275.549 120.139 275.694 119.684C275.777 119.373 275.839 119.021 275.818 118.565Z" fill="white"/>
<path d="M282.658 118.524C282.658 119.228 282.555 119.787 282.306 120.243C281.995 120.802 281.539 121.092 280.897 121.092C280.254 121.092 279.777 120.823 279.467 120.264C279.218 119.829 279.093 119.249 279.093 118.545C279.093 117.84 279.197 117.281 279.446 116.825C279.757 116.266 280.213 115.976 280.855 115.976C281.498 115.976 281.974 116.245 282.285 116.805C282.534 117.26 282.658 117.82 282.658 118.524ZM281.788 118.524C281.788 118.089 281.726 117.716 281.622 117.426C281.456 116.991 281.208 116.763 280.876 116.763C280.524 116.763 280.275 116.991 280.13 117.426C280.026 117.716 279.985 118.089 279.985 118.545C279.985 119.725 280.296 120.326 280.917 120.326C281.27 120.326 281.518 120.098 281.664 119.642C281.746 119.332 281.788 118.959 281.788 118.524Z" fill="white"/>
<path d="M286.597 118.482C286.597 119.187 286.493 119.746 286.244 120.202C285.933 120.761 285.477 121.051 284.835 121.051C284.192 121.051 283.716 120.782 283.405 120.222C283.156 119.787 283.032 119.207 283.032 118.503C283.032 117.799 283.135 117.24 283.384 116.784C283.695 116.225 284.151 115.935 284.793 115.935C285.436 115.935 285.913 116.204 286.224 116.763C286.472 117.219 286.597 117.799 286.597 118.482ZM285.705 118.482C285.705 118.047 285.643 117.675 285.54 117.385C285.374 116.95 285.125 116.722 284.793 116.722C284.441 116.722 284.192 116.95 284.047 117.385C283.944 117.675 283.902 118.047 283.902 118.503C283.902 119.684 284.213 120.285 284.835 120.285C285.187 120.285 285.436 120.057 285.581 119.601C285.664 119.311 285.726 118.938 285.705 118.482Z" fill="white"/>
<path d="M290.514 118.462C290.514 119.166 290.411 119.725 290.162 120.181C289.851 120.74 289.395 121.03 288.752 121.03C288.11 121.03 287.633 120.761 287.322 120.202C287.073 119.767 286.949 119.187 286.949 118.482C286.949 117.778 287.053 117.219 287.301 116.763C287.612 116.204 288.068 115.914 288.711 115.914C289.353 115.914 289.83 116.183 290.141 116.743C290.39 117.198 290.514 117.757 290.514 118.462ZM289.644 118.462C289.644 118.027 289.581 117.654 289.478 117.364C289.312 116.929 289.063 116.701 288.732 116.701C288.379 116.701 288.131 116.929 287.985 117.364C287.882 117.654 287.84 118.027 287.84 118.482C287.84 119.663 288.151 120.264 288.773 120.264C289.125 120.264 289.374 120.036 289.519 119.58C289.602 119.27 289.644 118.897 289.644 118.462Z" fill="white"/>
<path d="M294.452 118.42C294.452 119.125 294.349 119.684 294.1 120.14C293.789 120.699 293.333 120.989 292.691 120.989C292.048 120.989 291.571 120.719 291.26 120.16C291.012 119.725 290.887 119.145 290.887 118.441C290.887 117.737 290.991 117.177 291.24 116.722C291.551 116.163 292.007 115.873 292.649 115.873C293.292 115.873 293.768 116.142 294.079 116.701C294.328 117.157 294.452 117.737 294.452 118.42ZM293.582 118.42C293.582 117.985 293.52 117.612 293.416 117.322C293.25 116.888 293.001 116.66 292.67 116.66C292.317 116.66 292.069 116.888 291.924 117.322C291.82 117.612 291.779 117.985 291.779 118.441C291.779 119.622 292.089 120.222 292.711 120.222C293.064 120.222 293.312 119.995 293.457 119.539C293.54 119.249 293.582 118.876 293.582 118.42Z" fill="white"/>
<path d="M300.401 118.379C300.401 119.083 300.297 119.642 300.049 120.098C299.738 120.657 299.282 120.947 298.639 120.947C297.997 120.947 297.52 120.678 297.209 120.119C296.96 119.684 296.836 119.104 296.836 118.4C296.836 117.695 296.94 117.136 297.188 116.68C297.499 116.121 297.955 115.831 298.598 115.831C299.24 115.831 299.717 116.1 300.028 116.66C300.277 117.115 300.401 117.675 300.401 118.379ZM299.53 118.379C299.53 117.944 299.468 117.571 299.365 117.281C299.199 116.846 298.95 116.618 298.618 116.618C298.266 116.618 298.017 116.846 297.872 117.281C297.769 117.571 297.727 117.944 297.727 118.4C297.727 119.58 298.038 120.181 298.66 120.181C299.012 120.181 299.261 119.953 299.406 119.497C299.489 119.207 299.53 118.835 299.53 118.379Z" fill="white"/>
<path d="M304.339 118.358C304.339 119.062 304.236 119.622 303.987 120.077C303.676 120.637 303.22 120.927 302.577 120.927C301.935 120.927 301.458 120.657 301.147 120.098C300.898 119.663 300.774 119.083 300.774 118.379C300.774 117.675 300.878 117.115 301.126 116.66C301.437 116.1 301.893 115.81 302.536 115.81C303.178 115.81 303.655 116.08 303.966 116.639C304.215 117.074 304.339 117.654 304.339 118.358ZM303.469 118.358C303.469 117.923 303.406 117.55 303.303 117.26C303.137 116.825 302.888 116.598 302.557 116.598C302.204 116.598 301.955 116.825 301.81 117.26C301.707 117.55 301.665 117.923 301.665 118.379C301.665 119.56 301.976 120.16 302.598 120.16C302.95 120.16 303.199 119.932 303.344 119.477C303.427 119.166 303.469 118.793 303.469 118.358Z" fill="white"/>
<path d="M308.277 118.317C308.277 119.021 308.174 119.58 307.925 120.036C307.614 120.595 307.158 120.885 306.516 120.885C305.873 120.885 305.396 120.616 305.085 120.057C304.837 119.622 304.712 119.042 304.712 118.337C304.712 117.633 304.816 117.074 305.065 116.618C305.376 116.059 305.832 115.769 306.474 115.769C307.117 115.769 307.593 116.038 307.904 116.598C308.132 117.053 308.257 117.612 308.277 118.317ZM307.386 118.317C307.386 117.882 307.324 117.509 307.22 117.219C307.054 116.784 306.806 116.556 306.474 116.556C306.122 116.556 305.873 116.784 305.728 117.219C305.624 117.509 305.583 117.882 305.583 118.337C305.583 119.518 305.894 120.119 306.516 120.119C306.868 120.119 307.117 119.891 307.262 119.435C307.345 119.145 307.407 118.772 307.386 118.317Z" fill="white"/>
<path d="M312.195 118.296C312.195 119 312.091 119.56 311.843 120.015C311.532 120.575 311.076 120.864 310.433 120.864C309.791 120.864 309.314 120.595 309.003 120.036C308.754 119.601 308.63 119.021 308.63 118.317C308.63 117.612 308.733 117.053 308.982 116.598C309.293 116.038 309.749 115.748 310.392 115.748C311.034 115.748 311.511 116.018 311.822 116.577C312.071 117.012 312.195 117.592 312.195 118.296ZM311.324 118.296C311.324 117.861 311.262 117.488 311.159 117.198C310.993 116.763 310.744 116.535 310.412 116.535C310.06 116.535 309.811 116.763 309.666 117.198C309.563 117.488 309.521 117.861 309.521 118.317C309.521 119.497 309.832 120.098 310.454 120.098C310.806 120.098 311.055 119.87 311.2 119.415C311.283 119.104 311.324 118.731 311.324 118.296Z" fill="white"/>
<path d="M263.714 105.537L244.976 105.682C244.168 105.682 243.505 105.04 243.484 104.232C243.484 103.424 244.126 102.761 244.935 102.74L263.672 102.595C264.481 102.595 265.144 103.237 265.165 104.045C265.165 104.874 264.522 105.537 263.714 105.537Z" fill="white"/>
<path d="M317.335 103.652C317.335 103.113 317.149 102.637 316.817 102.243C316.734 102.14 316.548 102.119 316.465 102.222L316.382 102.305C316.299 102.388 316.299 102.533 316.361 102.616C316.589 102.906 316.734 103.258 316.734 103.631C316.734 104.025 316.61 104.377 316.382 104.667C316.299 104.77 316.32 104.895 316.403 104.977L316.485 105.06C316.589 105.164 316.755 105.143 316.838 105.04C317.149 104.687 317.335 104.19 317.335 103.652Z" fill="white"/>
<path d="M318.538 103.652C318.538 102.782 318.206 101.974 317.646 101.373C317.563 101.27 317.398 101.27 317.294 101.373L317.253 101.415C317.17 101.498 317.17 101.643 317.253 101.746C317.708 102.264 317.978 102.927 317.999 103.652C317.999 104.377 317.729 105.06 317.294 105.578C317.211 105.682 317.211 105.827 317.294 105.909L317.335 105.951C317.439 106.054 317.605 106.054 317.688 105.951C318.227 105.33 318.558 104.522 318.538 103.652Z" fill="white"/>
<path d="M319.615 103.652C319.615 102.471 319.139 101.415 318.413 100.607C318.309 100.503 318.164 100.503 318.061 100.607C317.978 100.69 317.978 100.835 318.061 100.938C318.724 101.663 319.139 102.616 319.139 103.652C319.139 104.708 318.745 105.661 318.102 106.386C318.019 106.489 318.019 106.634 318.102 106.717C318.206 106.821 318.351 106.821 318.455 106.717C319.18 105.889 319.615 104.812 319.615 103.652Z" fill="white"/>
<path d="M320.755 103.631C320.734 102.14 320.154 100.773 319.201 99.7576C319.097 99.6541 318.952 99.6541 318.848 99.7576L318.765 99.8405C318.682 99.9233 318.682 100.068 318.765 100.172C319.615 101.083 320.154 102.285 320.154 103.631C320.175 104.977 319.657 106.179 318.807 107.111C318.724 107.214 318.724 107.359 318.807 107.442L318.89 107.525C318.993 107.629 319.138 107.629 319.242 107.525C320.196 106.489 320.776 105.122 320.755 103.631Z" fill="white"/>
<path d="M245.494 141.33C245.494 141.662 245.432 141.952 245.328 142.159C245.183 142.428 244.955 142.573 244.645 142.573C244.334 142.573 244.106 142.449 243.96 142.18C243.836 141.973 243.774 141.683 243.774 141.351C243.774 141.02 243.836 140.73 243.94 140.523C244.085 140.253 244.313 140.108 244.624 140.108C244.935 140.108 245.163 140.233 245.308 140.502C245.432 140.709 245.494 140.999 245.494 141.33ZM245.08 141.33C245.08 141.123 245.059 140.937 244.997 140.792C244.914 140.585 244.81 140.46 244.624 140.481C244.458 140.481 244.334 140.585 244.271 140.813C244.23 140.958 244.188 141.144 244.209 141.351C244.209 141.931 244.354 142.221 244.665 142.2C244.831 142.2 244.955 142.097 245.018 141.869C245.059 141.724 245.08 141.538 245.08 141.33Z" fill="white"/>
<path d="M247.401 141.309C247.401 141.64 247.339 141.93 247.235 142.137C247.09 142.406 246.862 142.551 246.551 142.551C246.24 142.551 246.012 142.427 245.867 142.158C245.743 141.951 245.681 141.661 245.681 141.329C245.681 140.998 245.743 140.708 245.847 140.501C245.992 140.231 246.22 140.086 246.531 140.086C246.842 140.086 247.07 140.211 247.215 140.48C247.339 140.708 247.38 140.977 247.401 141.309ZM246.966 141.309C246.966 141.101 246.945 140.915 246.883 140.77C246.8 140.563 246.696 140.439 246.51 140.459C246.344 140.459 246.22 140.563 246.158 140.791C246.116 140.936 246.075 141.122 246.095 141.329C246.095 141.909 246.24 142.199 246.551 142.178C246.717 142.178 246.842 142.075 246.904 141.847C246.945 141.702 246.966 141.536 246.966 141.309Z" fill="white"/>
<path d="M248.811 140.231C248.811 140.252 248.79 140.294 248.769 140.335L247.795 142.386C247.754 142.489 247.691 142.531 247.608 142.531C247.567 142.531 247.526 142.51 247.484 142.489C247.443 142.448 247.443 142.427 247.443 142.365C247.443 142.323 247.443 142.282 247.463 142.241L248.438 140.19C248.479 140.086 248.541 140.045 248.624 140.045C248.666 140.045 248.707 140.066 248.748 140.086C248.79 140.149 248.811 140.19 248.811 140.231Z" fill="white"/>
<path d="M250.593 141.288C250.593 141.619 250.531 141.909 250.427 142.116C250.282 142.386 250.054 142.531 249.743 142.531C249.432 142.531 249.204 142.406 249.059 142.137C248.935 141.93 248.873 141.64 248.873 141.309C248.873 140.977 248.935 140.687 249.039 140.48C249.184 140.211 249.412 140.066 249.723 140.066C250.034 140.066 250.262 140.19 250.407 140.459C250.531 140.687 250.572 140.956 250.593 141.288ZM250.158 141.288C250.158 141.081 250.137 140.894 250.075 140.749C249.992 140.542 249.888 140.418 249.702 140.439C249.536 140.439 249.412 140.542 249.35 140.77C249.308 140.915 249.287 141.101 249.287 141.309C249.287 141.889 249.432 142.178 249.743 142.158C249.909 142.158 250.034 142.054 250.096 141.826C250.137 141.681 250.158 141.495 250.158 141.288Z" fill="white"/>
<path d="M252.479 141.267C252.479 141.599 252.417 141.889 252.314 142.096C252.168 142.365 251.94 142.51 251.63 142.51C251.319 142.51 251.091 142.386 250.946 142.116C250.821 141.909 250.759 141.619 250.759 141.288C250.759 140.956 250.821 140.666 250.925 140.459C251.07 140.19 251.298 140.045 251.609 140.045C251.92 140.045 252.148 140.169 252.293 140.439C252.417 140.666 252.479 140.936 252.479 141.267ZM252.065 141.267C252.065 141.06 252.044 140.874 251.982 140.729C251.899 140.521 251.795 140.397 251.609 140.418C251.443 140.418 251.319 140.521 251.256 140.749C251.215 140.894 251.194 141.081 251.194 141.288C251.194 141.868 251.339 142.158 251.65 142.137C251.816 142.137 251.94 142.034 252.003 141.806C252.044 141.661 252.065 141.495 252.065 141.267Z" fill="white"/>
<path d="M254.366 141.267C254.366 141.599 254.303 141.889 254.2 142.096C254.055 142.365 253.827 142.51 253.516 142.51C253.205 142.51 252.977 142.386 252.832 142.116C252.707 141.909 252.645 141.619 252.645 141.288C252.645 140.956 252.707 140.666 252.811 140.459C252.956 140.19 253.184 140.045 253.495 140.045C253.806 140.045 254.034 140.169 254.179 140.439C254.303 140.646 254.366 140.915 254.366 141.267ZM253.951 141.267C253.951 141.06 253.93 140.874 253.868 140.729C253.785 140.521 253.682 140.397 253.495 140.418C253.329 140.418 253.205 140.521 253.143 140.749C253.101 140.894 253.06 141.081 253.081 141.288C253.081 141.868 253.226 142.158 253.537 142.137C253.702 142.137 253.827 142.034 253.889 141.806C253.93 141.661 253.951 141.474 253.951 141.267Z" fill="white"/>
<path d="M256.273 141.246C256.273 141.578 256.21 141.868 256.107 142.075C255.962 142.344 255.734 142.489 255.423 142.489C255.112 142.489 254.884 142.365 254.739 142.096C254.614 141.888 254.552 141.599 254.552 141.267C254.552 140.936 254.614 140.646 254.718 140.439C254.863 140.169 255.091 140.024 255.402 140.024C255.713 140.024 255.941 140.149 256.086 140.418C256.21 140.625 256.273 140.915 256.273 141.246ZM255.837 141.246C255.837 141.039 255.817 140.853 255.754 140.708C255.671 140.501 255.568 140.376 255.381 140.397C255.215 140.397 255.091 140.501 255.029 140.729C254.987 140.874 254.946 141.06 254.967 141.267C254.967 141.847 255.112 142.137 255.423 142.116C255.589 142.116 255.713 142.013 255.775 141.785C255.817 141.64 255.858 141.454 255.837 141.246Z" fill="white"/>
<path d="M318.164 169.832C318.226 169.687 318.309 169.562 318.413 169.459C318.475 169.376 318.558 169.293 318.641 169.231L318.993 168.879L319.076 168.941C320.9 168.05 324.631 169.003 328.424 171.468C333.005 174.451 335.948 178.573 335.099 180.748L335.223 180.851L334.705 181.348C334.684 181.369 334.663 181.39 334.622 181.431L334.601 181.452C334.477 181.576 334.332 181.68 334.166 181.763C332.383 182.695 328.59 181.763 324.756 179.277C320.113 176.191 317.149 171.965 318.164 169.832Z" fill="#88ADD8"/>
<path d="M328.986 170.887C324.322 167.842 319.72 167.117 318.705 169.272C317.689 171.426 320.653 175.63 325.317 178.675C329.98 181.72 334.582 182.445 335.598 180.291C336.613 178.137 333.649 173.932 328.986 170.887Z" fill="#AFCDFB"/>
<path d="M325.585 178.075C323.636 176.79 321.957 175.258 320.838 173.746C319.719 172.192 319.325 170.825 319.74 169.914C319.947 169.437 320.361 169.126 320.942 168.961C322.662 168.464 325.709 169.416 328.714 171.384C330.663 172.668 332.342 174.201 333.461 175.713C334.58 177.267 334.974 178.634 334.56 179.545C334.352 180.022 333.938 180.332 333.357 180.498C333.047 180.581 332.715 180.622 332.321 180.622C330.559 180.622 328.051 179.69 325.585 178.075ZM321.045 169.271C320.569 169.416 320.237 169.665 320.071 170.038C319.719 170.825 320.092 172.089 321.128 173.518C322.206 175.009 323.864 176.521 325.771 177.764C328.155 179.338 330.642 180.25 332.342 180.25C332.673 180.25 332.984 180.208 333.254 180.125C333.731 179.98 334.062 179.732 334.228 179.359C334.58 178.572 334.207 177.308 333.171 175.879C332.093 174.388 330.435 172.876 328.528 171.633C326.144 170.059 323.657 169.147 321.957 169.147C321.626 169.168 321.315 169.209 321.045 169.271Z" fill="#98B9EA"/>
<path d="M329.378 176.003C329.481 176.024 329.564 176.024 329.647 176.003C329.73 175.983 329.772 175.941 329.813 175.858C329.854 175.796 329.854 175.693 329.854 175.589C329.854 175.485 329.813 175.382 329.772 175.258C329.73 175.133 329.647 175.03 329.544 174.906C329.44 174.781 329.295 174.678 329.129 174.553C328.963 174.429 328.756 174.326 328.507 174.222L328.404 173.145C328.818 173.331 329.17 173.518 329.481 173.746C329.792 173.973 330.041 174.181 330.248 174.429C330.456 174.678 330.621 174.906 330.746 175.133C330.87 175.361 330.953 175.589 330.995 175.817L332.01 176.273L332.072 176.853L331.057 176.397C331.057 176.604 330.995 176.77 330.912 176.915C330.829 177.06 330.704 177.143 330.538 177.184C330.373 177.225 330.186 177.246 329.937 177.205C329.709 177.163 329.44 177.08 329.129 176.956C328.797 176.811 328.507 176.645 328.258 176.459C328.01 176.273 327.782 176.065 327.595 175.858C327.388 175.63 327.222 175.403 327.056 175.133C326.89 174.885 326.745 174.595 326.58 174.305C326.476 174.118 326.393 173.953 326.31 173.828C326.227 173.704 326.124 173.58 326.041 173.476C325.958 173.373 325.854 173.29 325.75 173.228C325.647 173.166 325.522 173.103 325.398 173.041C325.274 172.979 325.149 172.938 325.046 172.917C324.942 172.896 324.838 172.896 324.776 172.896C324.714 172.896 324.652 172.958 324.61 173.021C324.569 173.083 324.548 173.166 324.569 173.269C324.59 173.476 324.714 173.683 324.921 173.891C325.129 174.098 325.46 174.305 325.854 174.471L325.958 175.548C325.605 175.403 325.294 175.237 325.025 175.051C324.756 174.864 324.486 174.657 324.279 174.45C324.072 174.243 323.885 174.015 323.74 173.787C323.595 173.559 323.491 173.331 323.429 173.103L322.31 172.606L322.247 172.006L323.346 172.482C323.346 172.275 323.408 172.109 323.491 171.964C323.574 171.819 323.719 171.736 323.885 171.695C324.051 171.654 324.258 171.633 324.486 171.674C324.714 171.716 324.984 171.799 325.274 171.923C325.605 172.068 325.896 172.233 326.144 172.42C326.393 172.606 326.621 172.813 326.808 173.021C326.994 173.248 327.181 173.476 327.346 173.746C327.512 173.994 327.657 174.284 327.802 174.574C327.885 174.74 327.968 174.906 328.051 175.03C328.134 175.154 328.217 175.278 328.321 175.382C328.424 175.485 328.528 175.568 328.632 175.651C328.735 175.734 328.88 175.796 329.025 175.858C329.15 175.962 329.274 175.983 329.378 176.003Z" fill="#98B9EA"/>
<path d="M225.866 181.762C225.928 181.617 226.011 181.493 226.114 181.39C226.176 181.307 226.259 181.224 226.342 181.162L226.695 180.81L226.798 180.872C228.602 179.981 232.353 180.934 236.146 183.399C240.727 186.382 243.67 190.503 242.821 192.678L242.945 192.782L242.427 193.279C242.406 193.3 242.385 193.32 242.344 193.362L242.323 193.383C242.199 193.507 242.054 193.61 241.888 193.693C240.105 194.625 236.312 193.693 232.478 191.208C227.835 188.142 224.871 183.917 225.866 181.762Z" fill="#88ADD8"/>
<path d="M236.687 182.839C232.023 179.794 227.422 179.069 226.406 181.223C225.391 183.377 228.355 187.582 233.018 190.627C237.682 193.672 242.283 194.397 243.299 192.243C244.315 190.088 241.351 185.884 236.687 182.839Z" fill="#AFCDFB"/>
<path d="M233.307 190.026C231.358 188.742 229.679 187.209 228.56 185.697C227.441 184.144 227.047 182.777 227.462 181.865C227.669 181.389 228.083 181.078 228.664 180.912C230.384 180.415 233.431 181.368 236.436 183.336C238.385 184.62 240.064 186.153 241.183 187.665C242.302 189.218 242.696 190.585 242.282 191.497C242.074 191.973 241.66 192.284 241.079 192.45C240.768 192.533 240.437 192.574 240.043 192.574C238.281 192.574 235.773 191.642 233.307 190.026ZM228.767 181.223C228.291 181.368 227.959 181.617 227.793 181.99C227.441 182.777 227.814 184.04 228.85 185.469C229.928 186.961 231.586 188.473 233.493 189.716C235.877 191.29 238.364 192.201 240.064 192.201C240.395 192.201 240.706 192.16 240.976 192.077C241.452 191.932 241.784 191.683 241.95 191.31C242.302 190.523 241.929 189.26 240.893 187.831C239.815 186.339 238.157 184.827 236.25 183.584C233.866 182.01 231.379 181.099 229.679 181.099C229.327 181.12 229.037 181.161 228.767 181.223Z" fill="#98B9EA"/>
<path d="M237.1 187.955C237.204 187.976 237.286 187.976 237.369 187.955C237.452 187.934 237.494 187.893 237.535 187.81C237.577 187.748 237.577 187.644 237.577 187.541C237.577 187.437 237.535 187.333 237.494 187.209C237.452 187.085 237.369 186.981 237.266 186.857C237.162 186.733 237.017 186.629 236.851 186.505C236.685 186.381 236.478 186.277 236.229 186.174L236.126 185.096C236.54 185.283 236.893 185.469 237.204 185.697C237.514 185.925 237.763 186.132 237.97 186.381C238.178 186.629 238.344 186.857 238.468 187.085C238.592 187.313 238.675 187.541 238.717 187.768L239.732 188.224L239.794 188.804L238.779 188.348C238.779 188.556 238.717 188.721 238.634 188.866C238.551 188.991 238.426 189.094 238.261 189.136C238.095 189.177 237.908 189.198 237.659 189.156C237.431 189.115 237.162 189.032 236.851 188.908C236.519 188.763 236.229 188.597 235.981 188.411C235.732 188.224 235.504 188.017 235.317 187.81C235.11 187.582 234.944 187.354 234.778 187.085C234.613 186.836 234.467 186.546 234.302 186.256C234.198 186.07 234.115 185.904 234.032 185.78C233.949 185.656 233.846 185.531 233.763 185.428C233.659 185.324 233.576 185.241 233.473 185.179C233.369 185.117 233.245 185.055 233.12 184.993C232.996 184.931 232.871 184.889 232.768 184.869C232.664 184.848 232.561 184.848 232.498 184.848C232.415 184.869 232.374 184.91 232.333 184.972C232.291 185.034 232.27 185.117 232.291 185.221C232.312 185.428 232.436 185.635 232.643 185.842C232.851 186.049 233.182 186.256 233.576 186.422L233.68 187.499C233.327 187.354 233.017 187.188 232.747 187.002C232.457 186.816 232.208 186.609 232.001 186.401C231.794 186.194 231.607 185.966 231.462 185.739C231.317 185.511 231.213 185.283 231.151 185.055L230.032 184.558L229.97 183.957L231.068 184.434C231.068 184.226 231.13 184.061 231.213 183.916C231.317 183.792 231.441 183.688 231.607 183.647C231.773 183.605 231.98 183.584 232.208 183.626C232.436 183.667 232.706 183.75 232.996 183.874C233.327 184.019 233.618 184.185 233.866 184.372C234.115 184.558 234.343 184.765 234.53 184.972C234.716 185.179 234.903 185.428 235.069 185.697C235.234 185.946 235.38 186.236 235.525 186.526C235.608 186.691 235.69 186.857 235.773 186.981C235.856 187.106 235.939 187.23 236.043 187.333C236.146 187.437 236.25 187.52 236.354 187.603C236.457 187.686 236.602 187.748 236.747 187.81C236.872 187.893 236.996 187.934 237.1 187.955Z" fill="#98B9EA"/>
<path d="M320.133 252.519C320.196 252.374 320.278 252.229 320.382 252.126C320.465 252.043 320.548 251.96 320.631 251.877L321.004 251.504L321.108 251.566C323.014 250.634 326.953 251.629 330.953 254.218C335.782 257.366 338.871 261.695 337.98 263.994L338.125 264.098L337.586 264.636C337.565 264.657 337.524 264.699 337.503 264.719L337.482 264.74C337.337 264.864 337.192 264.968 337.026 265.071C335.14 266.066 331.16 265.071 327.118 262.441C322.185 259.23 319.076 254.777 320.133 252.519Z" fill="#88ADD8"/>
<path d="M331.513 253.637C326.601 250.426 321.751 249.681 320.694 251.938C319.637 254.196 322.746 258.649 327.658 261.839C332.571 265.029 337.421 265.796 338.478 263.538C339.535 261.28 336.426 256.847 331.513 253.637Z" fill="#AFCDFB"/>
<path d="M327.948 261.218C325.896 259.872 324.113 258.256 322.952 256.661C321.771 255.025 321.356 253.595 321.791 252.622C322.019 252.125 322.434 251.793 323.056 251.607C324.859 251.089 328.072 252.083 331.243 254.155C333.295 255.501 335.078 257.117 336.239 258.712C337.42 260.348 337.835 261.777 337.399 262.751C337.171 263.248 336.757 263.579 336.135 263.766C335.824 263.849 335.451 263.911 335.057 263.911C333.192 263.89 330.538 262.916 327.948 261.218ZM323.159 251.938C322.662 252.083 322.31 252.353 322.123 252.746C321.75 253.575 322.144 254.921 323.242 256.412C324.382 257.987 326.124 259.561 328.134 260.887C330.642 262.544 333.275 263.496 335.057 263.496C335.409 263.496 335.741 263.455 336.031 263.372C336.529 263.227 336.881 262.958 337.068 262.564C337.441 261.736 337.047 260.389 335.948 258.898C334.808 257.324 333.067 255.75 331.057 254.424C328.549 252.767 325.916 251.814 324.134 251.814C323.781 251.835 323.45 251.856 323.159 251.938Z" fill="#98B9EA"/>
<path d="M331.948 259.022C332.052 259.043 332.155 259.043 332.238 259.002C332.321 258.981 332.362 258.919 332.404 258.857C332.445 258.794 332.445 258.691 332.445 258.567C332.445 258.463 332.404 258.339 332.362 258.235C332.321 258.111 332.238 257.987 332.114 257.862C332.01 257.738 331.865 257.614 331.678 257.49C331.513 257.365 331.285 257.241 331.036 257.137L330.932 256.019C331.367 256.205 331.741 256.412 332.052 256.64C332.362 256.868 332.632 257.117 332.86 257.345C333.088 257.593 333.254 257.842 333.378 258.09C333.502 258.339 333.606 258.587 333.648 258.815L334.725 259.292L334.788 259.913L333.71 259.437C333.71 259.664 333.648 259.83 333.565 259.975C333.461 260.12 333.337 260.224 333.171 260.265C333.005 260.307 332.798 260.327 332.549 260.286C332.3 260.244 332.031 260.162 331.699 260.017C331.347 259.872 331.036 259.685 330.787 259.499C330.518 259.312 330.29 259.084 330.082 258.857C329.875 258.629 329.689 258.38 329.523 258.09C329.357 257.821 329.191 257.531 329.025 257.22C328.922 257.034 328.818 256.868 328.735 256.723C328.652 256.578 328.549 256.454 328.445 256.35C328.341 256.247 328.238 256.164 328.134 256.081C328.03 255.998 327.906 255.936 327.761 255.874C327.616 255.812 327.512 255.77 327.388 255.75C327.284 255.729 327.181 255.729 327.098 255.729C327.015 255.75 326.953 255.791 326.911 255.853C326.87 255.915 326.849 255.998 326.87 256.122C326.89 256.33 327.015 256.557 327.243 256.785C327.471 257.013 327.802 257.22 328.238 257.407L328.341 258.525C327.989 258.359 327.657 258.194 327.346 257.987C327.035 257.78 326.787 257.572 326.559 257.365C326.331 257.137 326.144 256.91 325.999 256.682C325.854 256.433 325.73 256.205 325.667 255.957L324.486 255.439L324.424 254.818L325.585 255.335C325.585 255.107 325.647 254.942 325.75 254.797C325.854 254.652 325.978 254.569 326.165 254.507C326.331 254.445 326.559 254.445 326.787 254.486C327.035 254.528 327.305 254.61 327.616 254.755C327.968 254.921 328.279 255.087 328.549 255.273C328.818 255.46 329.046 255.687 329.253 255.915C329.461 256.143 329.647 256.392 329.813 256.682C329.979 256.972 330.145 257.241 330.29 257.552C330.373 257.738 330.476 257.883 330.559 258.028C330.642 258.173 330.746 258.297 330.849 258.401C330.953 258.504 331.057 258.608 331.181 258.67C331.305 258.753 331.43 258.815 331.596 258.898C331.699 258.981 331.823 259.022 331.948 259.022Z" fill="#98B9EA"/>
<path d="M259.299 273.294C259.402 273.087 259.506 272.9 259.651 272.735C259.755 272.61 259.858 272.486 259.983 272.382L260.501 271.865L260.646 271.968C263.278 270.684 268.709 272.051 274.222 275.634C280.876 279.963 285.125 285.95 283.902 289.119L284.089 289.264L283.342 290.009C283.301 290.051 283.28 290.092 283.239 290.113L283.218 290.134C283.032 290.299 282.824 290.444 282.576 290.569C279.985 291.936 274.492 290.569 268.916 286.944C262.138 282.532 257.827 276.421 259.299 273.294Z" fill="#88ADD8"/>
<path d="M274.989 274.847C268.211 270.435 261.537 269.379 260.086 272.507C258.635 275.634 262.926 281.745 269.704 286.157C276.482 290.569 283.156 291.625 284.607 288.497C286.058 285.39 281.767 279.259 274.989 274.847Z" fill="#AFCDFB"/>
<path d="M270.056 285.287C267.217 283.423 264.771 281.206 263.175 278.99C261.537 276.732 260.978 274.764 261.579 273.439C261.89 272.755 262.47 272.3 263.32 272.051C265.828 271.326 270.243 272.714 274.596 275.552C277.435 277.416 279.881 279.632 281.477 281.848C283.114 284.106 283.674 286.074 283.073 287.4C282.762 288.083 282.182 288.539 281.332 288.787C280.897 288.912 280.399 288.974 279.84 288.974C277.29 288.974 273.642 287.627 270.056 285.287ZM263.486 272.507C262.781 272.714 262.304 273.087 262.055 273.625C261.537 274.764 262.097 276.608 263.589 278.679C265.165 280.833 267.548 283.029 270.326 284.852C273.787 287.13 277.394 288.456 279.86 288.456C280.358 288.456 280.814 288.394 281.187 288.29C281.892 288.083 282.368 287.71 282.617 287.172C283.135 286.032 282.576 284.189 281.083 282.118C279.529 279.963 277.124 277.768 274.347 275.945C270.885 273.667 267.279 272.341 264.812 272.341C264.315 272.341 263.859 272.403 263.486 272.507Z" fill="#98B9EA"/>
<path d="M275.57 282.283C275.715 282.304 275.86 282.304 275.963 282.263C276.067 282.221 276.15 282.159 276.191 282.055C276.254 281.952 276.254 281.828 276.254 281.662C276.233 281.517 276.191 281.351 276.129 281.186C276.067 281.02 275.943 280.854 275.798 280.668C275.653 280.502 275.445 280.316 275.197 280.15C274.948 279.984 274.658 279.818 274.305 279.653L274.16 278.099C274.761 278.369 275.279 278.659 275.715 278.969C276.15 279.28 276.523 279.611 276.834 279.943C277.145 280.274 277.373 280.626 277.559 280.958C277.725 281.31 277.87 281.621 277.933 281.952L279.404 282.594L279.487 283.443L277.995 282.801C277.974 283.112 277.912 283.36 277.787 283.547C277.663 283.733 277.477 283.878 277.249 283.961C277.021 284.044 276.73 284.044 276.378 284.003C276.046 283.961 275.653 283.837 275.217 283.63C274.741 283.423 274.305 283.174 273.953 282.905C273.58 282.635 273.269 282.345 272.979 282.014C272.689 281.703 272.44 281.351 272.212 280.978C271.984 280.606 271.756 280.191 271.528 279.777C271.383 279.508 271.258 279.28 271.134 279.093C271.01 278.907 270.885 278.721 270.74 278.596C270.595 278.451 270.471 278.327 270.305 278.224C270.16 278.12 269.994 278.037 269.807 277.954C269.621 277.871 269.455 277.809 269.289 277.789C269.123 277.747 268.999 277.747 268.895 277.768C268.792 277.789 268.709 277.851 268.647 277.934C268.585 278.016 268.564 278.141 268.585 278.306C268.605 278.596 268.792 278.907 269.103 279.218C269.414 279.528 269.87 279.818 270.471 280.067L270.616 281.621C270.118 281.393 269.662 281.165 269.248 280.896C268.833 280.626 268.481 280.336 268.17 280.026C267.859 279.715 267.59 279.404 267.382 279.073C267.175 278.741 267.03 278.41 266.926 278.079L265.31 277.374L265.227 276.525L266.823 277.229C266.843 276.919 266.906 276.691 267.051 276.484C267.196 276.297 267.382 276.173 267.61 276.09C267.859 276.007 268.149 276.007 268.481 276.069C268.813 276.131 269.206 276.235 269.621 276.421C270.118 276.629 270.533 276.877 270.906 277.146C271.279 277.416 271.59 277.706 271.88 278.037C272.17 278.348 272.419 278.7 272.647 279.073C272.875 279.446 273.103 279.86 273.31 280.274C273.435 280.523 273.559 280.751 273.683 280.937C273.808 281.123 273.932 281.289 274.077 281.434C274.222 281.579 274.367 281.703 274.533 281.828C274.699 281.931 274.886 282.035 275.093 282.138C275.259 282.2 275.425 282.242 275.57 282.283Z" fill="#98B9EA"/>
<path d="M331.305 237.688C331.409 237.46 331.554 237.253 331.699 237.066C331.824 236.921 331.948 236.797 332.093 236.673L332.673 236.093L332.819 236.196C335.803 234.746 341.939 236.279 348.157 240.339C355.681 245.248 360.49 252.001 359.101 255.584L359.308 255.75L358.479 256.578C358.438 256.62 358.396 256.661 358.355 256.702L358.334 256.723C358.127 256.91 357.878 257.075 357.609 257.22C354.665 258.753 348.447 257.22 342.167 253.119C334.518 248.148 329.647 241.23 331.305 237.688Z" fill="#88ADD8"/>
<path d="M349.069 239.448C341.42 234.456 333.855 233.276 332.218 236.797C330.559 240.339 335.43 247.236 343.079 252.228C350.727 257.22 358.293 258.401 359.93 254.88C361.588 251.358 356.717 244.44 349.069 239.448Z" fill="#AFCDFB"/>
<path d="M343.493 251.234C340.28 249.142 337.524 246.615 335.72 244.109C333.876 241.561 333.233 239.324 333.917 237.812C334.269 237.045 334.933 236.507 335.886 236.238C338.705 235.43 343.721 236.983 348.634 240.194C351.846 242.286 354.603 244.813 356.406 247.319C358.251 249.867 358.894 252.104 358.21 253.616C357.857 254.382 357.194 254.921 356.24 255.19C355.743 255.335 355.183 255.397 354.562 255.397C351.66 255.418 347.556 253.885 343.493 251.234ZM336.052 236.797C335.264 237.025 334.725 237.46 334.435 238.06C333.834 239.345 334.477 241.437 336.176 243.777C337.938 246.221 340.653 248.686 343.804 250.758C347.722 253.326 351.805 254.838 354.582 254.838C355.142 254.838 355.66 254.776 356.095 254.652C356.883 254.424 357.422 253.989 357.712 253.388C358.313 252.104 357.671 250.012 355.971 247.671C354.209 245.227 351.494 242.762 348.343 240.691C344.426 238.123 340.343 236.61 337.565 236.61C336.985 236.61 336.487 236.673 336.052 236.797Z" fill="#98B9EA"/>
<path d="M206.755 209.455C206.859 209.227 207.004 209.02 207.149 208.834C207.273 208.689 207.397 208.565 207.543 208.44L208.123 207.86L208.268 207.964C211.253 206.514 217.388 208.047 223.606 212.107C231.13 217.016 235.939 223.768 234.55 227.352L234.758 227.517L233.928 228.346C233.887 228.387 233.846 228.429 233.804 228.47L233.783 228.491C233.576 228.677 233.327 228.843 233.058 228.988C230.115 230.521 223.896 228.988 217.616 224.887C209.968 219.895 205.097 212.997 206.755 209.455Z" fill="#88ADD8"/>
<path d="M224.518 211.216C216.87 206.224 209.304 205.043 207.667 208.565C206.009 212.107 210.88 219.004 218.528 223.996C226.177 228.988 233.742 230.169 235.379 226.647C237.038 223.126 232.167 216.208 224.518 211.216Z" fill="#AFCDFB"/>
<path d="M218.943 223.002C215.73 220.91 212.973 218.383 211.17 215.877C209.325 213.329 208.683 211.092 209.367 209.58C209.719 208.813 210.382 208.275 211.336 208.005C214.155 207.198 219.171 208.751 224.083 211.962C227.296 214.054 230.052 216.581 231.856 219.087C233.7 221.635 234.343 223.872 233.659 225.384C233.307 226.15 232.643 226.689 231.69 226.958C231.192 227.103 230.633 227.165 230.011 227.165C227.109 227.186 223.005 225.653 218.943 223.002ZM211.502 208.565C210.714 208.793 210.175 209.228 209.885 209.828C209.284 211.112 209.926 213.204 211.626 215.545C213.388 217.989 216.103 220.454 219.254 222.525C223.171 225.094 227.254 226.606 230.032 226.606C230.591 226.606 231.11 226.544 231.545 226.42C232.332 226.192 232.871 225.757 233.162 225.156C233.763 223.872 233.12 221.78 231.42 219.439C229.659 216.995 226.943 214.53 223.793 212.459C219.875 209.89 215.792 208.378 213.015 208.378C212.455 208.378 211.937 208.44 211.502 208.565Z" fill="#98B9EA"/>
<path d="M244.209 271.222C244.126 271.057 244.043 270.912 243.94 270.787C243.857 270.684 243.774 270.601 243.67 270.518L243.256 270.104L243.152 270.187C241.079 269.172 236.81 270.249 232.478 273.066C227.254 276.484 223.896 281.165 224.871 283.671L224.726 283.775L225.306 284.355C225.327 284.375 225.368 284.417 225.389 284.438L225.41 284.458C225.555 284.603 225.72 284.707 225.907 284.81C227.959 285.887 232.27 284.81 236.644 281.973C241.971 278.493 245.349 273.687 244.209 271.222Z" fill="#88ADD8"/>
<path d="M231.856 272.445C237.183 268.965 242.427 268.157 243.587 270.601C244.748 273.066 241.349 277.871 236.043 281.331C230.716 284.81 225.472 285.618 224.311 283.174C223.15 280.73 226.529 275.924 231.856 272.445Z" fill="#AFCDFB"/>
<path d="M228.042 283.547C227.607 283.547 227.213 283.505 226.86 283.402C226.197 283.215 225.741 282.843 225.492 282.304C225.016 281.268 225.451 279.715 226.736 277.934C228 276.194 229.907 274.433 232.146 272.983C235.566 270.746 239.048 269.669 241.017 270.228C241.68 270.415 242.136 270.787 242.385 271.326C242.862 272.362 242.427 273.915 241.142 275.697C239.877 277.436 237.97 279.197 235.732 280.647C232.913 282.49 230.052 283.547 228.042 283.547ZM239.856 270.477C237.929 270.477 235.089 271.533 232.353 273.314C230.156 274.744 228.291 276.463 227.047 278.161C225.865 279.798 225.43 281.248 225.824 282.138C226.011 282.573 226.404 282.863 226.943 283.008C227.254 283.091 227.607 283.133 228 283.133C229.928 283.133 232.768 282.076 235.504 280.295C237.701 278.866 239.566 277.146 240.81 275.448C241.991 273.812 242.427 272.362 242.033 271.471C241.846 271.036 241.452 270.746 240.914 270.601C240.603 270.518 240.25 270.477 239.856 270.477Z" fill="#98B9EA"/>
<path d="M231.793 278.161C231.959 278.099 232.104 278.016 232.229 277.934C232.353 277.851 232.477 277.747 232.581 277.623C232.685 277.499 232.788 277.374 232.892 277.229C232.996 277.084 233.079 276.898 233.182 276.711C233.348 276.38 233.535 276.049 233.7 275.759C233.887 275.469 234.073 275.199 234.301 274.93C234.529 274.682 234.778 274.454 235.068 274.247C235.359 274.039 235.69 273.853 236.063 273.687C236.395 273.542 236.685 273.439 236.955 273.397C237.224 273.356 237.452 273.356 237.639 273.418C237.825 273.48 237.97 273.584 238.074 273.729C238.177 273.874 238.24 274.06 238.26 274.309L239.525 273.749L239.463 274.433L238.198 274.992C238.136 275.262 238.012 275.51 237.846 275.779C237.68 276.049 237.473 276.297 237.224 276.525C236.975 276.774 236.706 276.981 236.374 277.209C236.043 277.416 235.69 277.623 235.296 277.789L235.421 276.566C235.898 276.359 236.25 276.131 236.499 275.904C236.747 275.655 236.872 275.427 236.892 275.199C236.913 275.075 236.892 274.972 236.851 274.909C236.809 274.847 236.747 274.806 236.664 274.785C236.582 274.764 236.478 274.764 236.354 274.806C236.229 274.827 236.105 274.868 235.96 274.951C235.815 275.034 235.69 275.096 235.566 275.158C235.441 275.241 235.338 275.324 235.234 275.448C235.131 275.552 235.027 275.697 234.923 275.841C234.82 275.986 234.716 276.173 234.612 276.38C234.426 276.711 234.26 277.043 234.073 277.333C233.887 277.623 233.68 277.892 233.472 278.161C233.244 278.41 232.996 278.638 232.705 278.866C232.415 279.073 232.084 279.259 231.711 279.425C231.358 279.57 231.068 279.673 230.799 279.715C230.529 279.756 230.301 279.736 230.115 279.694C229.928 279.632 229.783 279.528 229.679 279.383C229.576 279.238 229.513 279.031 229.513 278.803L228.353 279.321L228.415 278.658L229.576 278.141C229.638 277.892 229.741 277.623 229.866 277.354C230.011 277.084 230.197 276.815 230.425 276.546C230.653 276.276 230.964 276.028 231.296 275.779C231.648 275.531 232.042 275.303 232.519 275.096L232.395 276.318C232.125 276.442 231.876 276.566 231.69 276.711C231.503 276.856 231.337 276.981 231.234 277.126C231.109 277.271 231.027 277.395 230.964 277.519C230.902 277.644 230.881 277.768 230.861 277.892C230.84 278.016 230.861 278.12 230.902 278.203C230.944 278.286 231.006 278.327 231.089 278.368C231.172 278.389 231.275 278.41 231.4 278.389C231.524 278.265 231.648 278.224 231.793 278.161Z" fill="#98B9EA"/>
<path d="M313.77 173.994V264.76L310.661 263.31L307.158 264.76L305.728 263.372L301.355 264.76L298.411 263.89L293.209 264.76L288.421 263.89L282.928 264.76L279.259 263.372L274.202 264.76L270.118 263.89L265.476 264.76L260.542 263.89L257.309 264.76L253.785 263.89L249.806 264.76V173.994H313.77Z" fill="white"/>
<path d="M302.349 187.292H259.589C259.174 187.292 258.843 186.961 258.843 186.546C258.843 186.132 259.174 185.801 259.589 185.801H302.349C302.764 185.801 303.096 186.132 303.096 186.546C303.096 186.961 302.764 187.292 302.349 187.292Z" fill="#699FF0"/>
<path d="M302.349 193.527H259.589C259.174 193.527 258.843 193.195 258.843 192.781C258.843 192.367 259.174 192.035 259.589 192.035H302.349C302.764 192.035 303.096 192.367 303.096 192.781C303.096 193.195 302.764 193.527 302.349 193.527Z" fill="#699FF0"/>
<path d="M293.706 199.761H268.253C267.942 199.761 267.673 199.513 267.673 199.182V198.85C267.673 198.539 267.921 198.27 268.253 198.27H293.706C294.017 198.27 294.287 198.519 294.287 198.85V199.182C294.287 199.492 294.017 199.761 293.706 199.761Z" fill="#699FF0"/>
<path d="M293.706 205.996H268.253C267.942 205.996 267.673 205.748 267.673 205.416V205.085C267.673 204.774 267.921 204.505 268.253 204.505H293.706C294.017 204.505 294.287 204.753 294.287 205.085V205.416C294.287 205.727 294.017 205.996 293.706 205.996Z" fill="#699FF0"/>
<path d="M293.706 212.231H268.253C267.942 212.231 267.673 211.982 267.673 211.651V211.32C267.673 211.009 267.921 210.74 268.253 210.74H293.706C294.017 210.74 294.287 210.988 294.287 211.32V211.651C294.287 211.962 294.017 212.231 293.706 212.231Z" fill="#699FF0"/>
<path d="M281.021 249.328C273.704 249.328 267.756 243.384 267.756 236.072C267.756 228.76 273.704 222.815 281.021 222.815C288.338 222.815 294.287 228.76 294.287 236.072C294.287 243.384 288.338 249.328 281.021 249.328ZM281.021 223.893C274.305 223.893 268.833 229.361 268.833 236.072C268.833 242.783 274.305 248.251 281.021 248.251C287.737 248.251 293.209 242.783 293.209 236.072C293.209 229.361 287.737 223.893 281.021 223.893Z" fill="#699FF0"/>
<path d="M273.31 232.986L281.27 243.342L287.55 227.994L280.088 235.948L273.31 232.986Z" fill="#F99746"/>
<path d="M111.637 130.703C122.615 130.703 131.515 121.81 131.515 110.839C131.515 99.8686 122.615 90.9752 111.637 90.9752C100.659 90.9752 91.7599 99.8686 91.7599 110.839C91.7599 121.81 100.659 130.703 111.637 130.703Z" fill="#DCEAFF"/>
<path d="M123.763 118.897V118.565H123.514V118.234H121.11V106.282H121.628V105.454H124.053L111.845 99.0327L99.1802 105.454H101.585V106.282H102.103V118.234H99.9264V118.565H99.6777V118.897H99.346V119.228H124.094V118.897H123.763ZM108.445 106.262H108.963V105.433H114.56V106.262H115.078V118.213H108.445V106.262ZM119.825 106.262V118.213H116.363V106.262H116.881V105.433H119.306V106.262H119.825ZM111.824 100.151L120.26 104.542L102.932 104.584L111.824 100.151ZM103.388 106.262H103.906V105.433H106.621V106.262H107.139V118.213H103.388V106.262Z" fill="#AFCDFB"/>
<path d="M112.363 102.533C112.301 102.492 112.238 102.43 112.155 102.388C112.073 102.347 111.99 102.305 111.886 102.264C111.824 102.243 111.782 102.222 111.741 102.202C111.699 102.181 111.658 102.16 111.637 102.14C111.617 102.119 111.596 102.098 111.596 102.057C111.596 102.036 111.575 101.995 111.575 101.953C111.575 101.912 111.575 101.891 111.596 101.85C111.617 101.829 111.617 101.787 111.637 101.767C111.658 101.746 111.679 101.725 111.72 101.725C111.762 101.705 111.782 101.705 111.845 101.705C111.927 101.705 111.99 101.725 112.052 101.787C112.093 101.85 112.135 101.932 112.114 102.036H112.549C112.549 101.932 112.529 101.85 112.508 101.787C112.487 101.705 112.446 101.643 112.404 101.58C112.363 101.518 112.301 101.477 112.218 101.435C112.155 101.394 112.073 101.373 111.99 101.373V101.063H111.741V101.353C111.658 101.353 111.575 101.373 111.492 101.415C111.409 101.435 111.347 101.477 111.306 101.539C111.243 101.58 111.202 101.642 111.181 101.705C111.161 101.767 111.14 101.85 111.14 101.912C111.14 101.995 111.161 102.077 111.181 102.14C111.202 102.202 111.264 102.264 111.306 102.305C111.368 102.347 111.43 102.409 111.513 102.43C111.596 102.471 111.679 102.512 111.782 102.533C111.845 102.554 111.886 102.575 111.927 102.595C111.969 102.616 111.99 102.637 112.031 102.657C112.052 102.678 112.073 102.72 112.093 102.74C112.114 102.761 112.114 102.802 112.114 102.844C112.114 102.885 112.114 102.906 112.093 102.947C112.073 102.968 112.073 103.01 112.031 103.03C112.01 103.051 111.969 103.072 111.948 103.072C111.907 103.092 111.865 103.092 111.824 103.092C111.782 103.092 111.741 103.092 111.699 103.072C111.658 103.051 111.617 103.051 111.596 103.01C111.575 102.989 111.534 102.947 111.513 102.906C111.492 102.865 111.492 102.802 111.492 102.74H111.057C111.057 102.844 111.078 102.947 111.098 103.03C111.14 103.113 111.181 103.175 111.243 103.237C111.306 103.3 111.368 103.341 111.451 103.362C111.534 103.382 111.617 103.403 111.699 103.424V103.693H111.948V103.424C112.031 103.424 112.114 103.403 112.197 103.362C112.28 103.341 112.342 103.3 112.383 103.258C112.446 103.217 112.487 103.155 112.508 103.092C112.529 103.03 112.549 102.947 112.549 102.865C112.549 102.782 112.529 102.699 112.508 102.637C112.466 102.637 112.425 102.575 112.363 102.533Z" fill="#AFCDFB"/>
<path d="M124.302 167.78C123.452 170.038 122.001 172.669 120.467 173.311C118.726 174.056 118.001 175.092 118.001 175.092L116.591 174.284L114.912 173.311C114.912 173.311 114.954 173.124 115.037 172.813C115.12 172.503 115.244 172.089 115.41 171.633C115.41 171.633 115.928 170.97 115.617 170.141C115.306 169.313 115.368 168.029 115.907 167.262C116.446 166.475 116.964 164.57 117.296 164.611C118.084 164.735 116.902 167.387 117.254 167.884C117.565 168.319 117.938 168.174 118.001 168.132C118.001 168.132 118.001 168.132 118.021 168.132C120.218 167.159 122.892 161.96 124.053 162.664C124.488 162.933 124.654 166.827 124.302 167.78Z" fill="#FFB27D"/>
<path d="M116.695 170.929L119.452 172.855C119.638 173 119.908 172.938 120.053 172.751L127.1 162.726C127.245 162.54 127.183 162.27 126.996 162.125L124.24 160.199C124.053 160.054 123.784 160.116 123.638 160.303L116.591 170.328C116.446 170.535 116.508 170.804 116.695 170.929Z" fill="#2B478B"/>
<path d="M119.224 172.71L120.84 173.849C120.985 173.953 121.193 173.911 121.296 173.766L128.468 163.575C128.572 163.43 128.53 163.223 128.385 163.12L126.768 161.98C126.623 161.877 126.416 161.918 126.312 162.063L119.141 172.254C119.037 172.399 119.058 172.606 119.224 172.71Z" fill="#233862"/>
<path d="M77.2093 156.554C77.2093 156.554 91.2209 180.954 96.2991 185.449L114.933 171.571C114.933 171.571 117.628 172.399 118.83 175.113C118.83 175.113 107.513 198.146 96.382 199.119C85.2515 200.093 69.6231 171.509 69.6231 171.509L77.2093 156.554Z" fill="#233862"/>
<path d="M45.5379 322.55H37.4543C36.4386 321.991 35.5266 320.727 35.2364 318.842C34.8426 316.233 31.9201 314.824 31.2775 312.691C30.6557 310.557 33.8892 307.554 33.8892 307.554L34.4281 306.849L34.9877 306.124L40.3561 307.388C40.3561 307.388 40.4805 308.672 40.5634 310.288C40.6255 311.468 40.6463 312.815 40.5841 314.016C40.4183 316.854 41.3717 319.919 43.9005 320.479C45.7866 320.893 45.7037 321.991 45.5379 322.55Z" fill="#233862"/>
<path d="M92.4853 322.55H73.9758C73.0846 321.473 73.4162 317.455 73.5406 316.15C73.5613 315.88 73.582 315.735 73.582 315.735C73.582 315.735 79.9038 310.681 80.7744 314.555C80.7951 314.679 80.8366 314.803 80.878 314.907C81.9766 318.532 86.8682 320.168 89.7078 320.624C91.5526 320.934 92.2366 321.887 92.4853 322.55Z" fill="#233862"/>
<path d="M88.9616 219.336C88.9616 219.336 88.0082 231.287 86.8682 245.683C85.3344 265.216 83.4896 289.202 83.3031 293.759C82.9922 301.65 81.7278 314.285 81.7278 314.285C81.7278 314.285 78.7224 317.289 72.7322 316.025C72.7322 316.025 67.3845 298.005 65.8507 278.928C65.83 278.617 65.8093 278.306 65.7885 277.996C64.3583 258.587 62.1613 217.699 62.1613 217.699L88.9616 219.336Z" fill="#F99746"/>
<path d="M88.9616 219.336C88.9616 219.336 88.0082 231.287 86.8682 245.683L65.8507 278.907C65.83 278.596 65.8093 278.286 65.7885 277.975C64.3583 258.567 62.1613 217.679 62.1613 217.679L88.9616 219.336Z" fill="#ED7D2B"/>
<path d="M84.5675 220.765C84.5675 220.765 67.2809 264.076 55.9016 284.438C44.5223 304.799 40.9779 310.474 40.9779 310.474C40.9779 310.474 34.4695 307.864 33.8685 306.104C33.8685 306.104 38.2212 266.811 45.8281 257.22C50.1394 251.814 55.1761 235.554 55.4249 229.879C55.6529 224.203 56.9587 212.956 56.9587 212.956L84.5675 220.765Z" fill="#F99746"/>
<path d="M80.2769 157.61C73.5198 159.743 61.8296 153.985 61.8296 153.985C61.8296 153.985 68.0685 149.304 67.7369 139.589L72.9602 143.794L76.5045 146.653C76.5045 146.653 76.4838 148.33 76.1107 151.292C76.0071 152.059 75.8827 152.929 75.7169 153.882C78.598 155.476 80.2769 157.61 80.2769 157.61Z" fill="#FFB27D"/>
<path d="M76.5045 146.673C76.5045 146.673 76.4838 148.351 76.1107 151.313C72.1725 150.63 67.7162 144.291 67.7162 144.291C69.7267 143.711 71.4678 143.608 72.9602 143.815L76.5045 146.673Z" fill="#ED975D"/>
<path d="M78.5565 146.508C78.5565 146.508 67.3845 148.351 66.3482 141.391C65.2911 134.432 63.1562 129.978 70.2449 128.508C77.3336 127.037 79.1162 129.481 80.0282 131.718C80.9402 133.955 81.4376 145.845 78.5565 146.508Z" fill="#FFB27D"/>
<path d="M89.7079 220.33C89.5006 220.496 89.2726 220.599 89.0031 220.599C86.4744 220.558 79.0748 221.966 72.7944 221.324C67.5089 220.827 62.8453 219.253 57.8292 217.016C57.166 216.726 55.6321 215.897 55.6736 215.152C55.6943 214.344 55.7772 213.163 55.8809 211.672C56.2332 206.493 56.8551 197.587 56.254 187.334C56.1503 185.428 56.0881 183.522 56.0881 181.658C56.0467 167.739 58.8034 155.497 64.3376 151.355C64.8143 151.023 67.7162 152.432 70.39 153.757C72.8565 154.979 75.3231 155.104 77.6653 154.627L80.0075 156.699C82.8471 159.329 85.9562 162.913 87.3242 168.36C88.485 173 89.1482 181.347 89.5213 190.006C89.6871 193.92 89.8322 197.877 89.853 201.646V201.771C89.8944 202.144 89.8944 202.558 89.8944 202.931C89.9981 212.562 89.8737 220.206 89.7079 220.33Z" fill="#2B478B"/>
<path d="M55.8602 211.672C56.2126 206.493 56.8344 197.587 56.2333 187.334C56.1297 185.428 56.0675 183.522 56.0675 181.658C58.3889 176.045 60.2751 171.985 60.2751 171.985H66.0995C66.0995 171.985 70.3693 201.149 55.8602 211.672Z" fill="#233862"/>
<path d="M26.0129 244.73L50.8649 248.272C54.0984 248.728 57.1246 246.47 57.5806 243.239L59.1144 232.468C59.5704 229.237 57.3111 226.212 54.0777 225.757L29.2256 222.215C25.9921 221.759 22.966 224.017 22.5099 227.248L20.9761 238.019C20.5201 241.25 22.7794 244.274 26.0129 244.73Z" fill="#233862"/>
<path d="M55.4871 228.967C54.7823 227.227 53.29 225.84 51.3623 225.363C51.1758 225.322 50.9892 225.28 50.7819 225.26L45.8281 224.555L46.1598 222.235C46.2427 221.718 46.0976 221.2 45.7867 220.786C45.4758 220.371 45.0198 220.102 44.5016 220.019L43.2165 219.833L38.0139 219.087L37.0812 218.963C36.0034 218.818 35.0085 219.563 34.8634 220.641L34.5317 222.96L25.9921 221.738C22.7379 221.283 19.7117 223.561 19.2557 226.792L17.7011 237.688C17.2451 240.94 19.5251 243.964 22.7586 244.419L47.5692 247.961C48.0045 248.024 48.4398 248.044 48.8543 248.003C49.5383 247.961 50.1809 247.775 50.7819 247.506C52.606 246.698 53.9947 244.999 54.2849 242.887L55.8394 231.991C56.0052 230.935 55.8601 229.899 55.4871 228.967ZM36.0655 220.786C36.107 220.454 36.3765 220.206 36.6666 220.164C36.7288 220.143 36.8117 220.143 36.8946 220.164L37.9932 220.33L42.0765 220.91L44.315 221.221C44.7088 221.283 44.999 221.655 44.9368 222.049L44.6052 224.369L35.7339 223.105L36.0655 220.786Z" fill="#2B478B"/>
<path d="M44.9161 212.687C44.9161 212.687 43.6103 214.427 43.5689 215.11C43.2165 219.812 45.3721 220.475 39.7965 223.085C39.7965 223.085 37.4129 223.996 37.3714 222.153C37.3299 220.309 39.0296 220.268 38.7187 217.699C38.3663 214.717 38.4078 214.696 40.3561 213.142L41.662 211.009L44.9161 212.687Z" fill="#FFB27D"/>
<path d="M41.5998 214.012C43.6932 214.427 45.9732 214.261 45.9732 214.261C45.9732 214.261 52.2122 195.039 52.9998 193.278C53.8082 191.518 71.5093 170.721 71.5093 170.721L64.1304 152.287C64.1304 152.287 44.9783 184.247 43.0507 188.742C39.8379 196.157 38.7187 212.79 38.7187 212.79C38.7187 212.79 39.9416 213.681 41.5998 214.012Z" fill="#2B478B"/>
<path d="M66.3482 140.729C66.3482 140.729 67.4882 140.542 67.3016 138.968C67.1151 137.394 67.1151 135.322 68.4002 135.716C69.6853 136.109 69.7474 137.124 70.2656 136.524C70.7838 135.923 70.8045 133.396 74.6184 133.23C78.4322 133.065 79.9867 134.39 81.7693 133.603C83.5518 132.816 83.6348 130.144 83.6348 130.144C83.6348 130.144 83.1373 131.097 82.3704 131.408C82.3704 131.408 85.3344 127.368 81.8937 124.593C78.4736 121.817 74.9707 123.64 72.9809 123.764C68.6074 124.034 65.7885 124.282 64.3583 127.161C62.9489 129.999 63.55 137.953 66.3482 140.729Z" fill="#2B478B"/>
<path d="M42.8641 214.758C42.8641 214.758 44.1285 216.063 44.1907 216.601C44.4394 218.341 45.0198 219.108 44.7296 219.294C44.1285 219.688 43.3201 218.403 42.9263 217.244C42.5532 216.084 42.8641 214.758 42.8641 214.758Z" fill="#FFB27D"/>
<path d="M468.464 324H0.536204C0.250229 324 0 323.748 0 323.417V323.223C0 322.912 0.232355 322.641 0.536204 322.641H468.464C468.75 322.641 469 322.893 469 323.223V323.417C469 323.728 468.75 324 468.464 324Z" fill="#2E3552"/>
</svg>
